<svg viewBox="0 0 24 24" width="24" height="24" data-testid="apple" class="s42" xmlns="http://www.w3.org/2000/svg"><path fill-rule="evenodd" d="M16.391 1a4.95 4.95 0 0 1-1.132 3.546 4.165 4.165 0 0 1-3.289 1.555 4.71 4.71 0 0 1 1.162-3.415c.836-.952 2-1.554 3.26-1.686Zm4.037 7.547a5.028 5.028 0 0 0-2.394 4.219A4.859 4.859 0 0 0 21 17.236a11.138 11.138 0 0 1-1.543 3.141c-.908 1.36-1.861 2.688-3.373 2.712-.72.017-1.205-.19-1.71-.406-.529-.224-1.078-.459-1.939-.459-.912 0-1.487.242-2.04.475-.48.202-.943.397-1.596.424-1.44.053-2.541-1.45-3.483-2.797-1.882-2.75-3.348-7.75-1.383-11.152a5.4 5.4 0 0 1 4.545-2.772c.816-.016 1.6.298 2.287.574.526.212.995.4 1.379.4.337 0 .793-.181 1.325-.392.837-.332 1.86-.739 2.904-.629a5.147 5.147 0 0 1 4.055 2.192Z" clip-rule="evenodd"></path></svg>