<svg xmlns="http://www.w3.org/2000/svg" width="145" height="48" viewBox="0 0 145 48" fill="none">
<g clip-path="url(#clip0_3649_34996)">
<path d="M132.958 3.39297e-05H11.8988C11.4575 3.39297e-05 11.0215 3.39298e-05 10.5814 0.00243393C10.213 0.00483393 9.84753 0.0118059 9.47558 0.0176739C8.66754 0.0271561 7.86139 0.0980455 7.06415 0.229726C6.26803 0.364273 5.49685 0.617933 4.7767 0.982126C4.05742 1.3494 3.40019 1.82664 2.82886 2.39652C2.25453 2.9648 1.77579 3.62165 1.41103 4.34183C1.04527 5.06057 0.791644 5.83076 0.658924 6.62581C0.524942 7.41986 0.452845 8.22306 0.44328 9.02821C0.432113 9.39613 0.430933 9.76528 0.425049 10.1332V37.8704C0.430933 38.243 0.432113 38.6039 0.44328 38.9766C0.452848 39.7818 0.524945 40.5849 0.658924 41.3789C0.791277 42.1744 1.04491 42.9451 1.41103 43.6641C1.77562 44.3819 2.25444 45.0361 2.82886 45.6012C3.39803 46.1737 4.05568 46.6512 4.7767 47.0157C5.49685 47.3809 6.26795 47.636 7.06415 47.7727C7.86153 47.9033 8.66759 47.9742 9.47558 47.9848C9.84753 47.993 10.213 47.9977 10.5814 47.9977C11.0215 48 11.4575 48 11.8988 48H132.958C133.39 48 133.83 48 134.262 47.9977C134.629 47.9977 135.005 47.993 135.372 47.9848C136.178 47.9748 136.983 47.9038 137.778 47.7727C138.577 47.6351 139.351 47.38 140.075 47.0157C140.795 46.651 141.452 46.1735 142.021 45.6012C142.594 45.0339 143.074 44.3802 143.443 43.6641C143.806 42.9446 144.057 42.174 144.188 41.3789C144.322 40.5848 144.396 39.7818 144.411 38.9766C144.416 38.6039 144.416 38.243 144.416 37.8704C144.425 37.4344 144.425 37.0008 144.425 36.5578V11.4434C144.425 11.0039 144.425 10.568 144.416 10.1332C144.416 9.76528 144.416 9.39613 144.411 9.02816C144.396 8.22294 144.322 7.41992 144.188 6.62576C144.057 5.83117 143.806 5.06104 143.443 4.34178C142.7 2.89827 141.522 1.72326 140.075 0.982018C139.351 0.618715 138.577 0.365123 137.778 0.229618C136.983 0.0973573 136.178 0.0264433 135.372 0.0175059C135.005 0.0116499 134.629 0.00461793 134.262 0.00227793C133.83 -0.00012207 133.39 -0.00012207 132.958 -0.00012207V3.39297e-05Z" fill="#A6A6A6"/>
<path d="M10.5873 46.95C10.2206 46.95 9.86285 46.9454 9.49908 46.9372C8.74551 46.9274 7.9937 46.862 7.24982 46.7415C6.55619 46.6224 5.88424 46.4008 5.25615 46.084C4.63382 45.7699 4.0662 45.358 3.57504 44.8641C3.07678 44.376 2.66195 43.8099 2.34699 43.1883C2.02857 42.5626 1.8082 41.8919 1.69356 41.1996C1.56977 40.4558 1.50279 39.7036 1.4932 38.9496C1.48557 38.6966 1.47559 37.8539 1.47559 37.8539V10.1333C1.47559 10.1333 1.48622 9.30356 1.49326 9.05981C1.50244 8.30703 1.56903 7.55603 1.69246 6.81332C1.80731 6.11915 2.02784 5.44655 2.34644 4.8188C2.66024 4.19758 3.07276 3.63108 3.56803 3.14126C4.06274 2.64679 4.63217 2.23277 5.25556 1.9143C5.88221 1.59856 6.55288 1.37853 7.24511 1.26157C7.99144 1.13985 8.74586 1.07404 9.50204 1.0647L10.5879 1.05005H134.256L135.355 1.06529C136.104 1.07417 136.852 1.13939 137.591 1.2604C138.291 1.37882 138.968 1.60039 139.602 1.91782C140.851 2.55963 141.867 3.57504 142.508 4.82173C142.822 5.44514 143.039 6.11226 143.152 6.80044C143.277 7.54924 143.347 8.30613 143.362 9.06509C143.365 9.40493 143.365 9.76997 143.365 10.1333C143.374 10.5833 143.374 11.0116 143.374 11.4434V36.5578C143.374 36.9938 143.374 37.4192 143.365 37.848C143.365 38.2383 143.365 38.5958 143.36 38.9637C143.346 39.7091 143.278 40.4525 143.155 41.1879C143.042 41.8852 142.823 42.5611 142.505 43.1919C142.188 43.8068 141.775 44.368 141.283 44.8547C140.791 45.3513 140.222 45.7656 139.599 46.0817C138.967 46.4009 138.29 46.6233 137.591 46.7415C136.848 46.8626 136.096 46.9281 135.342 46.9372C134.99 46.9454 134.621 46.95 134.262 46.95L132.958 46.9524L10.5873 46.95Z" fill="#010101"/>
<path d="M30.2312 24.3608C30.2441 23.3592 30.5109 22.3771 31.0067 21.506C31.5026 20.6348 32.2113 19.9029 33.067 19.3783C32.5234 18.6041 31.8062 17.967 30.9725 17.5175C30.1388 17.0681 29.2115 16.8187 28.2642 16.7891C26.2434 16.5776 24.2844 17.9949 23.2547 17.9949C22.205 17.9949 20.6196 16.8101 18.9123 16.8451C17.808 16.8807 16.7318 17.2009 15.7885 17.7746C14.8452 18.3483 14.067 19.1558 13.5297 20.1186C11.2024 24.1367 12.9384 30.0419 15.1678 33.2899C16.2832 34.8803 17.5867 36.6568 19.2925 36.5938C20.9616 36.5248 21.585 35.5325 23.5998 35.5325C25.5959 35.5325 26.1808 36.5938 27.9211 36.5538C29.7122 36.5248 30.8406 34.9563 31.9169 33.3508C32.7183 32.2176 33.335 30.9651 33.7441 29.6398C32.7035 29.2009 31.8156 28.4663 31.1909 27.5275C30.5662 26.5888 30.2324 25.4874 30.2312 24.3608Z" fill="white"/>
<path d="M26.9439 14.6531C27.9205 13.484 28.4016 11.9814 28.2851 10.4644C26.7931 10.6206 25.4149 11.3317 24.4252 12.4559C23.9413 13.0051 23.5706 13.644 23.3345 14.3361C23.0983 15.0283 23.0013 15.76 23.0489 16.4896C23.7951 16.4972 24.5334 16.3359 25.2081 16.0178C25.8828 15.6997 26.4763 15.2331 26.9439 14.6531Z" fill="white"/>
<path d="M51.3303 32.5677H45.6343L44.2664 36.5955H41.8538L47.2489 21.6938H49.7556L55.1507 36.5955H52.697L51.3303 32.5677ZM46.2242 30.7091H50.7392L48.5135 24.1724H48.4512L46.2242 30.7091Z" fill="white"/>
<path d="M66.8025 31.1637C66.8025 34.5399 64.9904 36.709 62.2558 36.709C61.5631 36.7452 60.8742 36.5861 60.2679 36.2499C59.6617 35.9137 59.1626 35.4141 58.8279 34.8082H58.7761V40.1895H56.5398V25.7309H58.7045V27.5379H58.7456C59.0957 26.935 59.6032 26.438 60.2141 26.0997C60.825 25.7615 61.5164 25.5948 62.2147 25.6172C64.9798 25.6172 66.8025 27.7969 66.8025 31.1637ZM64.5039 31.1637C64.5039 28.9641 63.364 27.518 61.6248 27.518C59.9161 27.518 58.7668 28.9946 58.7668 31.1637C58.7668 33.3528 59.9161 34.8188 61.6248 34.8188C63.364 34.8188 64.5039 33.3833 64.5039 31.1637Z" fill="white"/>
<path d="M78.7938 31.1637C78.7938 34.5399 76.9817 36.709 74.247 36.709C73.5543 36.7452 72.8654 36.586 72.2591 36.2499C71.6529 35.9137 71.1538 35.4141 70.8191 34.8082H70.7673V40.1895H68.531V25.7309H70.6957V27.5379H70.7368C71.0869 26.935 71.5944 26.438 72.2053 26.0997C72.8161 25.7615 73.5075 25.5948 74.2059 25.6172C76.9711 25.6172 78.7938 27.7969 78.7938 31.1637ZM76.4951 31.1637C76.4951 28.9641 75.3552 27.518 73.616 27.518C71.9073 27.518 70.758 28.9946 70.758 31.1637C70.758 33.3528 71.9073 34.8188 73.616 34.8188C75.3552 34.8188 76.4951 33.3833 76.4951 31.1637H76.4951Z" fill="white"/>
<path d="M86.7192 32.4434C86.8849 33.9212 88.3245 34.8914 90.2917 34.8914C92.1767 34.8914 93.5328 33.9211 93.5328 32.5887C93.5328 31.432 92.7149 30.7395 90.7782 30.2649L88.8415 29.7996C86.0975 29.1387 84.8236 27.859 84.8236 25.7824C84.8236 23.2113 87.0706 21.4453 90.2611 21.4453C93.4188 21.4453 95.5835 23.2113 95.6563 25.7824H93.3988C93.2637 24.2953 92.0309 23.3977 90.2294 23.3977C88.4279 23.3977 87.1951 24.3059 87.1951 25.6277C87.1951 26.6813 87.9825 27.3012 89.9086 27.7757L91.555 28.1789C94.621 28.9019 95.8949 30.1301 95.8949 32.3097C95.8949 35.0976 93.6679 36.8437 90.126 36.8437C86.812 36.8437 84.5745 35.1386 84.4299 32.4433L86.7192 32.4434Z" fill="white"/>
<path d="M100.721 23.1599V25.731H102.793V27.497H100.721V33.4865C100.721 34.4169 101.136 34.8505 102.047 34.8505C102.293 34.8463 102.538 34.829 102.782 34.7989V36.5544C102.373 36.6307 101.957 36.6652 101.54 36.6575C99.3345 36.6575 98.4743 35.8314 98.4743 33.7243V27.497H96.8901V25.731H98.4742V23.1599H100.721Z" fill="white"/>
<path d="M103.993 31.1638C103.993 27.7455 106.012 25.5974 109.16 25.5974C112.319 25.5974 114.328 27.7454 114.328 31.1638C114.328 34.5916 112.33 36.7302 109.16 36.7302C105.992 36.7302 103.993 34.5915 103.993 31.1638ZM112.05 31.1638C112.05 28.8189 110.972 27.4349 109.16 27.4349C107.348 27.4349 106.272 28.8294 106.272 31.1638C106.272 33.5181 107.348 34.8916 109.16 34.8916C110.972 34.8916 112.05 33.5181 112.05 31.1638H112.05Z" fill="white"/>
<path d="M116.172 25.7308H118.305V27.58H118.357C118.501 27.0025 118.841 26.4921 119.318 26.1346C119.795 25.7771 120.381 25.5944 120.978 25.6171C121.235 25.6162 121.492 25.6441 121.744 25.7003V27.7863C121.419 27.6871 121.079 27.6416 120.739 27.6515C120.414 27.6384 120.09 27.6955 119.79 27.819C119.489 27.9424 119.219 28.1293 118.997 28.3668C118.776 28.6042 118.609 28.8867 118.507 29.1947C118.405 29.5027 118.372 29.829 118.409 30.1511V36.5953H116.172L116.172 25.7308Z" fill="white"/>
<path d="M132.055 33.4044C131.754 35.3767 129.828 36.7302 127.363 36.7302C124.194 36.7302 122.227 34.6126 122.227 31.2154C122.227 27.8076 124.205 25.5974 127.269 25.5974C130.284 25.5974 132.179 27.6622 132.179 30.9564V31.7205H124.484V31.8552C124.449 32.2551 124.499 32.6579 124.632 33.0369C124.764 33.4159 124.976 33.7624 125.253 34.0535C125.531 34.3445 125.867 34.5734 126.239 34.725C126.612 34.8766 127.013 34.9473 127.415 34.9326C127.944 34.9819 128.474 34.8599 128.927 34.5846C129.381 34.3092 129.733 33.8953 129.931 33.4044L132.055 33.4044ZM124.495 30.1619H129.942C129.962 29.8023 129.907 29.4426 129.781 29.1051C129.655 28.7677 129.461 28.4598 129.21 28.2009C128.959 27.942 128.657 27.7376 128.323 27.6005C127.989 27.4635 127.63 27.3967 127.269 27.4044C126.905 27.4023 126.544 27.4721 126.207 27.6097C125.87 27.7474 125.564 27.9503 125.306 28.2067C125.048 28.463 124.844 28.7678 124.704 29.1034C124.565 29.439 124.494 29.7987 124.495 30.1619V30.1619Z" fill="white"/>
<path d="M45.9439 10.4771C46.4128 10.4436 46.8832 10.5142 47.3214 10.6839C47.7596 10.8536 48.1545 11.1182 48.4777 11.4586C48.8009 11.7989 49.0443 12.2066 49.1904 12.6521C49.3365 13.0976 49.3816 13.5699 49.3225 14.0349C49.3225 16.3224 48.0827 17.6373 45.9439 17.6373H43.3503V10.4771H45.9439ZM44.4656 16.6247H45.8194C46.1544 16.6447 46.4897 16.5899 46.8008 16.4644C47.1119 16.3388 47.391 16.1457 47.6179 15.899C47.8447 15.6523 48.0135 15.3583 48.112 15.0384C48.2105 14.7184 48.2362 14.3806 48.1873 14.0495C48.2327 13.7197 48.2043 13.384 48.1043 13.0664C48.0043 12.7488 47.8351 12.4572 47.6088 12.2125C47.3825 11.9678 47.1047 11.776 46.7953 11.6509C46.4859 11.5258 46.1527 11.4705 45.8194 11.489H44.4656V16.6247Z" fill="white"/>
<path d="M50.5824 14.933C50.5483 14.5779 50.5891 14.2197 50.702 13.8812C50.8149 13.5427 50.9975 13.2315 51.2381 12.9675C51.4787 12.7035 51.772 12.4926 52.0992 12.3483C52.4263 12.204 52.7801 12.1294 53.1378 12.1294C53.4955 12.1294 53.8493 12.204 54.1764 12.3483C54.5036 12.4926 54.7968 12.7035 55.0375 12.9675C55.2781 13.2315 55.4607 13.5427 55.5736 13.8812C55.6865 14.2197 55.7273 14.5779 55.6932 14.933C55.7279 15.2885 55.6877 15.6473 55.575 15.9863C55.4624 16.3254 55.2799 16.6371 55.0392 16.9016C54.7986 17.1661 54.5051 17.3775 54.1776 17.5221C53.8501 17.6668 53.4959 17.7415 53.1378 17.7415C52.7796 17.7415 52.4255 17.6668 52.098 17.5221C51.7705 17.3775 51.477 17.1661 51.2364 16.9016C50.9957 16.6371 50.8132 16.3254 50.7006 15.9863C50.5879 15.6473 50.5477 15.2885 50.5824 14.933ZM54.5932 14.933C54.5932 13.7618 54.0656 13.0768 53.1396 13.0768C52.21 13.0768 51.6871 13.7618 51.6871 14.9331C51.6871 16.1137 52.21 16.7934 53.1396 16.7934C54.0656 16.7934 54.5932 16.109 54.5932 14.933H54.5932Z" fill="white"/>
<path d="M62.4866 17.6372H61.3773L60.2574 13.6575H60.1727L59.0575 17.6372H57.9587L56.4651 12.2336H57.5498L58.5205 16.3568H58.6004L59.7144 12.2336H60.7403L61.8544 16.3568H61.939L62.905 12.2336H63.9744L62.4866 17.6372Z" fill="white"/>
<path d="M65.2307 12.2336H66.2602V13.092H66.3401C66.4756 12.7837 66.7043 12.5253 66.9941 12.3527C67.284 12.1802 67.6206 12.1021 67.9571 12.1293C68.2208 12.1096 68.4855 12.1492 68.7317 12.2453C68.9779 12.3414 69.1993 12.4916 69.3794 12.6846C69.5595 12.8776 69.6938 13.1086 69.7722 13.3603C69.8507 13.6121 69.8714 13.8783 69.8327 14.1391V17.6371H68.7633V14.4069C68.7633 13.5385 68.3849 13.1067 67.594 13.1067C67.415 13.0984 67.2363 13.1288 67.0701 13.1958C66.904 13.2628 66.7544 13.3648 66.6315 13.4948C66.5086 13.6249 66.4153 13.7799 66.3581 13.9493C66.3009 14.1186 66.2811 14.2983 66.3001 14.476V17.6372H65.2307L65.2307 12.2336Z" fill="white"/>
<path d="M71.5366 10.1243H72.606V17.6372H71.5366V10.1243Z" fill="white"/>
<path d="M74.0926 14.9332C74.0586 14.578 74.0993 14.2197 74.2123 13.8812C74.3252 13.5427 74.5079 13.2315 74.7485 12.9675C74.9892 12.7035 75.2825 12.4926 75.6096 12.3483C75.9368 12.204 76.2906 12.1294 76.6483 12.1294C77.0061 12.1294 77.3599 12.204 77.687 12.3483C78.0142 12.4926 78.3075 12.7035 78.5481 12.9675C78.7887 13.2315 78.9714 13.5427 79.0843 13.8812C79.1973 14.2197 79.238 14.578 79.204 14.9332C79.2387 15.2886 79.1984 15.6474 79.0857 15.9864C78.9731 16.3255 78.7905 16.6372 78.5498 16.9017C78.3091 17.1662 78.0156 17.3776 77.6881 17.5222C77.3607 17.6668 77.0065 17.7416 76.6483 17.7416C76.2902 17.7416 75.936 17.6668 75.6085 17.5222C75.281 17.3776 74.9875 17.1662 74.7468 16.9017C74.5061 16.6372 74.3236 16.3255 74.2109 15.9864C74.0982 15.6474 74.058 15.2886 74.0926 14.9332ZM78.1034 14.9332C78.1034 13.7619 77.5758 13.0769 76.6498 13.0769C75.7202 13.0769 75.1973 13.7619 75.1973 14.9332C75.1973 16.1138 75.7203 16.7935 76.6498 16.7935C77.5758 16.7935 78.1035 16.1091 78.1035 14.9332H78.1034Z" fill="white"/>
<path d="M80.3298 16.1091C80.3298 15.1364 81.0561 14.5757 82.3452 14.496L83.813 14.4116V13.9452C83.813 13.3745 83.4346 13.0522 82.7037 13.0522C82.1067 13.0522 81.693 13.2708 81.5743 13.6528H80.539C80.6483 12.7247 81.5238 12.1294 82.753 12.1294C84.1115 12.1294 84.8777 12.8038 84.8777 13.9452V17.6372H83.8483V16.8778H83.7637C83.5919 17.1502 83.3508 17.3723 83.0648 17.5213C82.7789 17.6704 82.4584 17.7411 82.1361 17.7262C81.9086 17.7498 81.6787 17.7256 81.4612 17.6552C81.2436 17.5847 81.0433 17.4696 80.8731 17.3173C80.703 17.1649 80.5667 16.9787 80.4731 16.7706C80.3795 16.5625 80.3307 16.3371 80.3298 16.1091ZM83.813 15.6473V15.1956L82.4898 15.28C81.7436 15.3298 81.4051 15.5829 81.4051 16.0593C81.4051 16.5456 81.8282 16.8286 82.4099 16.8286C82.5804 16.8458 82.7525 16.8286 82.9162 16.7781C83.0799 16.7276 83.2317 16.6448 83.3626 16.5346C83.4935 16.4244 83.6008 16.289 83.6782 16.1366C83.7556 15.9842 83.8015 15.8178 83.813 15.6473Z" fill="white"/>
<path d="M86.2832 14.9331C86.2832 13.2257 87.1634 12.144 88.5325 12.144C88.8711 12.1285 89.2072 12.2093 89.5015 12.3772C89.7957 12.5451 90.036 12.793 90.1942 13.092H90.2741V10.1243H91.3435V17.6372H90.3187V16.7834H90.2341C90.0637 17.0804 89.8151 17.3253 89.5151 17.4914C89.2152 17.6576 88.8754 17.7388 88.5325 17.7262C87.154 17.7263 86.2832 16.6446 86.2832 14.9331ZM87.3879 14.9331C87.3879 16.0792 87.9297 16.7688 88.8357 16.7688C89.737 16.7688 90.2941 16.0692 90.2941 14.9378C90.2941 13.8116 89.7312 13.102 88.8357 13.102C87.9355 13.102 87.3879 13.7964 87.3879 14.9331H87.3879Z" fill="white"/>
<path d="M95.7679 14.933C95.7339 14.5779 95.7746 14.2197 95.8875 13.8812C96.0005 13.5427 96.1831 13.2315 96.4237 12.9675C96.6643 12.7035 96.9576 12.4926 97.2847 12.3483C97.6118 12.204 97.9656 12.1294 98.3233 12.1294C98.6811 12.1294 99.0348 12.204 99.362 12.3483C99.6891 12.4926 99.9824 12.7035 100.223 12.9675C100.464 13.2315 100.646 13.5427 100.759 13.8812C100.872 14.2197 100.913 14.5779 100.879 14.933C100.913 15.2885 100.873 15.6473 100.761 15.9863C100.648 16.3254 100.465 16.6371 100.225 16.9016C99.9841 17.1661 99.6906 17.3775 99.3631 17.5221C99.0357 17.6668 98.6815 17.7415 98.3233 17.7415C97.9652 17.7415 97.611 17.6668 97.2835 17.5221C96.9561 17.3775 96.6626 17.1661 96.4219 16.9016C96.1812 16.6371 95.9987 16.3254 95.8861 15.9863C95.7735 15.6473 95.7332 15.2885 95.7679 14.933ZM99.7788 14.933C99.7788 13.7618 99.2511 13.0768 98.3251 13.0768C97.3956 13.0768 96.8726 13.7618 96.8726 14.9331C96.8726 16.1137 97.3956 16.7934 98.3251 16.7934C99.2511 16.7934 99.7788 16.109 99.7788 14.933Z" fill="white"/>
<path d="M102.314 12.2336H103.343V13.092H103.423C103.559 12.7837 103.787 12.5253 104.077 12.3527C104.367 12.1802 104.704 12.1021 105.04 12.1293C105.304 12.1096 105.568 12.1492 105.815 12.2453C106.061 12.3414 106.282 12.4916 106.462 12.6846C106.643 12.8776 106.777 13.1086 106.855 13.3603C106.934 13.6121 106.954 13.8783 106.916 14.1391V17.6371H105.846V14.4069C105.846 13.5385 105.468 13.1067 104.677 13.1067C104.498 13.0984 104.319 13.1288 104.153 13.1958C103.987 13.2628 103.837 13.3648 103.714 13.4948C103.592 13.6249 103.498 13.7799 103.441 13.9493C103.384 14.1186 103.364 14.2983 103.383 14.476V17.6372H102.314V12.2336Z" fill="white"/>
<path d="M112.958 10.8884V12.2583H114.132V13.1566H112.958V15.9351C112.958 16.5011 113.192 16.749 113.725 16.749C113.861 16.7485 113.997 16.7403 114.132 16.7244V17.6126C113.94 17.6469 113.746 17.6651 113.551 17.6671C112.361 17.6671 111.888 17.2499 111.888 16.2081V13.1565H111.028V12.2583H111.888V10.8884H112.958Z" fill="white"/>
<path d="M115.593 10.1243H116.653V13.102H116.738C116.88 12.7908 117.115 12.5309 117.41 12.3577C117.706 12.1845 118.048 12.1064 118.39 12.134C118.652 12.1198 118.914 12.1635 119.158 12.2619C119.401 12.3604 119.62 12.5112 119.798 12.7036C119.976 12.896 120.11 13.1253 120.189 13.375C120.268 13.6248 120.291 13.8889 120.256 14.1485V17.6372H119.186V14.4116C119.186 13.5485 118.782 13.1114 118.027 13.1114C117.843 13.0963 117.658 13.1215 117.485 13.1852C117.312 13.2489 117.155 13.3495 117.025 13.4799C116.895 13.6104 116.795 13.7677 116.733 13.9406C116.67 14.1136 116.646 14.2981 116.662 14.4813V17.6371H115.593L115.593 10.1243Z" fill="white"/>
<path d="M126.491 16.1783C126.346 16.6722 126.031 17.0993 125.602 17.3851C125.173 17.6709 124.656 17.7971 124.143 17.7416C123.786 17.751 123.432 17.6828 123.104 17.5418C122.776 17.4007 122.483 17.1902 122.244 16.9249C122.006 16.6595 121.829 16.3456 121.725 16.005C121.62 15.6645 121.591 15.3053 121.64 14.9525C121.593 14.5987 121.622 14.2388 121.726 13.8971C121.83 13.5555 122.007 13.2402 122.244 12.9725C122.48 12.7048 122.772 12.491 123.099 12.3456C123.426 12.2001 123.781 12.1264 124.139 12.1295C125.646 12.1295 126.556 13.1567 126.556 14.8535V15.2256H122.73V15.2854C122.713 15.4836 122.738 15.6832 122.803 15.8713C122.868 16.0594 122.972 16.2319 123.108 16.3776C123.244 16.5234 123.409 16.6392 123.592 16.7177C123.775 16.7962 123.973 16.8356 124.173 16.8334C124.429 16.864 124.688 16.818 124.917 16.7014C125.147 16.5848 125.336 16.4027 125.462 16.1783L126.491 16.1783ZM122.73 14.4369H125.467C125.48 14.2556 125.455 14.0734 125.394 13.9021C125.333 13.7309 125.236 13.5743 125.111 13.4425C124.985 13.3106 124.833 13.2065 124.665 13.1367C124.496 13.0668 124.315 13.0329 124.133 13.0371C123.948 13.0348 123.764 13.0694 123.593 13.139C123.422 13.2085 123.266 13.3115 123.135 13.442C123.004 13.5724 122.901 13.7277 122.832 13.8985C122.762 14.0694 122.727 14.2525 122.73 14.4369H122.73Z" fill="white"/>
</g>
<defs>
<clipPath id="clip0_3649_34996">
<rect width="144" height="48" fill="white" transform="translate(0.425049)"/>
</clipPath>
</defs>
</svg>