<svg xmlns="http://www.w3.org/2000/svg" width="176" height="48" viewBox="0 0 176 48" fill="none">
<rect width="176" height="48" rx="9.6" fill="black"/>
<rect x="10.7754" y="8.40015" width="31.1292" height="31.2" rx="12" fill="url(#paint0_angular_4214_49390)"/>
<path d="M77.5254 24.4787H79.9439V37.6665H77.5254V24.4787Z" fill="white"/>
<path d="M50.8841 31.1641C50.8841 27.4576 53.6755 24.4813 57.5159 24.4813C60.2009 24.4813 62.3169 25.8535 63.419 27.8137L61.2855 29.097C60.4854 27.6178 59.241 26.8336 57.5338 26.8336C55.1157 26.8336 53.2843 28.7938 53.2843 31.1641C53.2843 33.5697 55.0981 35.4946 57.6226 35.4946C59.5607 35.4946 60.9122 34.3896 61.3742 32.6789H57.2317V30.3623H63.9701V31.3247C63.9701 34.835 61.4989 37.8473 57.6226 37.8473C53.5688 37.8473 50.8841 34.7637 50.8841 31.1641Z" fill="white"/>
<path d="M65.0749 32.4654C65.0749 29.0081 67.5997 27.0302 70.2312 27.0302C71.6003 27.0302 72.8271 27.6002 73.574 28.4914V27.2441H75.9741V37.6691H73.574V36.3141C72.8091 37.2766 71.5647 37.883 70.1956 37.883C67.6884 37.883 65.0749 35.8687 65.0749 32.4654ZM73.6983 32.4298C73.6983 30.6654 72.3647 29.2219 70.5868 29.2219C68.8089 29.2219 67.4398 30.6302 67.4398 32.4298C67.4398 34.247 68.8089 35.6729 70.5868 35.6729C72.3647 35.6729 73.6983 34.2294 73.6983 32.4298Z" fill="white"/>
<path d="M81.1678 32.4654C81.1678 29.0081 83.6926 27.0302 86.3241 27.0302C87.6932 27.0302 88.9201 27.6002 89.6669 28.4914V27.2441H92.0671V37.6691H89.6669V36.3141C88.9025 37.2766 87.658 37.883 86.2886 37.883C83.7817 37.883 81.1678 35.8687 81.1678 32.4654ZM89.7916 32.4298C89.7916 30.6654 88.4581 29.2219 86.6805 29.2219C84.9022 29.2219 83.5331 30.6302 83.5331 32.4298C83.5331 34.247 84.9022 35.6729 86.6805 35.6729C88.4577 35.6729 89.7916 34.2294 89.7916 32.4298Z" fill="white"/>
<path d="M96.7456 32.3585L92.9764 27.2441H95.9104L98.2746 30.5585L100.622 27.2441H103.466L99.7324 32.3941L103.715 37.6691H100.782L98.2394 34.1941L95.7677 37.6691H92.8338L96.7456 32.3585Z" fill="white"/>
<path d="M108.215 37.152L103.948 27.2437H106.508L109.407 34.265L112.144 27.2437H114.67L108.464 42.4803H106.029L108.215 37.152Z" fill="white"/>
<path d="M119.597 35.5126L121.802 33.7663C122.46 34.889 123.473 35.5303 124.646 35.5303C125.927 35.5303 126.62 34.6935 126.62 33.784C126.62 32.6793 125.305 32.3408 123.917 31.9131C122.175 31.3604 120.237 30.6835 120.237 28.2062C120.237 26.1214 122.051 24.4817 124.539 24.4817C126.638 24.4817 127.847 25.2839 128.896 26.371L126.905 27.8854C126.353 27.0659 125.589 26.6381 124.558 26.6381C123.384 26.6381 122.744 27.2798 122.744 28.1169C122.744 29.1507 123.989 29.4895 125.394 29.9529C127.154 30.5229 129.145 31.3071 129.145 33.802C129.145 35.8511 127.509 37.8477 124.664 37.8477C122.317 37.8473 120.77 36.8488 119.597 35.5126Z" fill="white"/>
<path d="M129.342 27.2437H131.12V25.6577L133.538 24.0003V27.2437H135.654V29.4002H133.538V33.3026C133.538 35.1205 133.787 35.4057 135.654 35.4057V37.6687H135.316C132.098 37.6687 131.12 36.6353 131.12 33.3209V29.4002H129.342L129.342 27.2437Z" fill="white"/>
<path d="M136.295 32.4654C136.295 29.4358 138.677 27.0299 141.682 27.0299C144.669 27.0299 147.069 29.4358 147.069 32.4654C147.069 35.477 144.669 37.883 141.682 37.883C138.677 37.883 136.295 35.477 136.295 32.4654ZM144.705 32.4654C144.705 30.7191 143.371 29.2932 141.682 29.2932C139.957 29.2932 138.659 30.7191 138.659 32.4654C138.659 34.1941 139.957 35.6196 141.682 35.6196C143.371 35.6196 144.705 34.1941 144.705 32.4654Z" fill="white"/>
<path d="M150.681 27.2437V28.7942C151.16 27.7604 152.032 27.2437 153.347 27.2437C154.094 27.2437 154.716 27.422 155.179 27.6891L154.272 29.9702C153.916 29.7386 153.507 29.5604 152.831 29.5604C151.445 29.5604 150.698 30.309 150.698 32.1086V37.6687H148.298V27.2437H150.681Z" fill="white"/>
<path d="M155.447 32.4831C155.447 29.4358 157.811 27.0299 160.852 27.0299C163.945 27.0299 166.204 29.3109 166.204 32.3941V33.3026H157.741C158.061 34.7644 159.234 35.7622 160.941 35.7622C162.275 35.7622 163.324 35.0316 163.821 33.9266L165.795 35.0669C164.888 36.7426 163.252 37.8826 160.941 37.8826C157.669 37.8826 155.447 35.4946 155.447 32.4831ZM157.865 31.2891H163.768C163.412 29.8992 162.346 29.1507 160.852 29.1507C159.411 29.1507 158.292 30.0238 157.865 31.2891Z" fill="white"/>
<path d="M55.9113 16.7691H52.5627L51.9459 18.4803H50.8884L53.6642 10.8296H54.8208L57.5855 18.4803H56.5281L55.9113 16.7691ZM55.6249 15.9521L54.237 12.0661L52.8491 15.9521H55.6249Z" fill="white"/>
<path d="M60.3814 17.5529L62.254 12.4304H63.3224L60.9542 18.4803H59.7866L57.4184 12.4304H58.4979L60.3814 17.5529Z" fill="white"/>
<path d="M64.0444 15.4333C64.0444 14.815 64.1693 14.2741 64.4189 13.8104C64.6686 13.3393 65.0101 12.975 65.4433 12.7174C65.8839 12.4598 66.3723 12.331 66.9083 12.331C67.437 12.331 67.896 12.4451 68.2852 12.6733C68.6744 12.9014 68.9645 13.1885 69.1554 13.5344V12.4304H70.1688V18.4803H69.1554V17.3542C68.9571 17.7075 68.6597 18.0019 68.2632 18.2374C67.874 18.4656 67.4187 18.5797 66.8973 18.5797C66.3613 18.5797 65.8766 18.4472 65.4433 18.1822C65.0101 17.9173 64.6686 17.5456 64.4189 17.0672C64.1693 16.5888 64.0444 16.0441 64.0444 15.4333ZM69.1554 15.4443C69.1554 14.988 69.0636 14.5905 68.88 14.252C68.6964 13.9134 68.4468 13.6558 68.131 13.4792C67.8226 13.2952 67.4811 13.2032 67.1066 13.2032C66.7321 13.2032 66.3906 13.2915 66.0822 13.4681C65.7738 13.6448 65.5278 13.9024 65.3442 14.2409C65.1606 14.5795 65.0688 14.9769 65.0688 15.4333C65.0688 15.8969 65.1606 16.3017 65.3442 16.6477C65.5278 16.9862 65.7738 17.2475 66.0822 17.4315C66.3906 17.6081 66.7321 17.6965 67.1066 17.6965C67.4811 17.6965 67.8226 17.6081 68.131 17.4315C68.4468 17.2475 68.6964 16.9862 68.88 16.6477C69.0636 16.3017 69.1554 15.9006 69.1554 15.4443Z" fill="white"/>
<path d="M72.1601 11.4478C71.9691 11.4478 71.8076 11.3816 71.6754 11.2491C71.5432 11.1166 71.4771 10.9547 71.4771 10.7633C71.4771 10.572 71.5432 10.4101 71.6754 10.2776C71.8076 10.1451 71.9691 10.0789 72.1601 10.0789C72.3436 10.0789 72.4978 10.1451 72.6227 10.2776C72.7549 10.4101 72.821 10.572 72.821 10.7633C72.821 10.9547 72.7549 11.1166 72.6227 11.2491C72.4978 11.3816 72.3436 11.4478 72.1601 11.4478ZM72.6447 12.4304V18.4803H71.6424V12.4304H72.6447Z" fill="white"/>
<path d="M75.1351 10.3107V18.4803H74.1328V10.3107H75.1351Z" fill="white"/>
<path d="M76.469 15.4333C76.469 14.815 76.5938 14.2741 76.8435 13.8104C77.0932 13.3393 77.4346 12.975 77.8679 12.7174C78.3085 12.4598 78.7968 12.331 79.3329 12.331C79.8616 12.331 80.3205 12.4451 80.7097 12.6733C81.0989 12.9014 81.389 13.1885 81.5799 13.5344V12.4304H82.5933V18.4803H81.5799V17.3542C81.3816 17.7075 81.0842 18.0019 80.6877 18.2374C80.2985 18.4656 79.8432 18.5797 79.3218 18.5797C78.7858 18.5797 78.3011 18.4472 77.8679 18.1822C77.4346 17.9173 77.0932 17.5456 76.8435 17.0672C76.5938 16.5888 76.469 16.0441 76.469 15.4333ZM81.5799 15.4443C81.5799 14.988 81.4881 14.5905 81.3045 14.252C81.121 13.9134 80.8713 13.6558 80.5555 13.4792C80.2471 13.2952 79.9056 13.2032 79.5311 13.2032C79.1566 13.2032 78.8152 13.2915 78.5067 13.4681C78.1983 13.6448 77.9523 13.9024 77.7687 14.2409C77.5852 14.5795 77.4934 14.9769 77.4934 15.4333C77.4934 15.8969 77.5852 16.3017 77.7687 16.6477C77.9523 16.9862 78.1983 17.2475 78.5067 17.4315C78.8152 17.6081 79.1566 17.6965 79.5311 17.6965C79.9056 17.6965 80.2471 17.6081 80.5555 17.4315C80.8713 17.2475 81.121 16.9862 81.3045 16.6477C81.4881 16.3017 81.5799 15.9006 81.5799 15.4443Z" fill="white"/>
<path d="M85.3997 13.5565C85.6053 13.1958 85.9064 12.9014 86.3029 12.6733C86.6995 12.4451 87.1511 12.331 87.6578 12.331C88.2012 12.331 88.6895 12.4598 89.1228 12.7174C89.556 12.975 89.8975 13.3393 90.1471 13.8104C90.3968 14.2741 90.5217 14.815 90.5217 15.4333C90.5217 16.0441 90.3968 16.5888 90.1471 17.0672C89.8975 17.5456 89.5523 17.9173 89.1117 18.1822C88.6785 18.4472 88.1938 18.5797 87.6578 18.5797C87.1364 18.5797 86.6774 18.4656 86.2809 18.2374C85.8917 18.0093 85.598 17.7185 85.3997 17.3653V18.4803H84.3973V10.3107H85.3997V13.5565ZM89.4973 15.4333C89.4973 14.9769 89.4055 14.5795 89.2219 14.2409C89.0383 13.9024 88.7886 13.6448 88.4729 13.4681C88.1645 13.2915 87.823 13.2032 87.4485 13.2032C87.0813 13.2032 86.7399 13.2952 86.4241 13.4792C86.1157 13.6558 85.866 13.9171 85.6751 14.263C85.4915 14.6016 85.3997 14.9953 85.3997 15.4443C85.3997 15.9006 85.4915 16.3017 85.6751 16.6477C85.866 16.9862 86.1157 17.2475 86.4241 17.4315C86.7399 17.6081 87.0813 17.6965 87.4485 17.6965C87.823 17.6965 88.1645 17.6081 88.4729 17.4315C88.7886 17.2475 89.0383 16.9862 89.2219 16.6477C89.4055 16.3017 89.4973 15.8969 89.4973 15.4333Z" fill="white"/>
<path d="M92.8434 10.3107V18.4803H91.841V10.3107H92.8434Z" fill="white"/>
<path d="M100.169 15.2235C100.169 15.4149 100.158 15.6173 100.136 15.8307H95.3118C95.3485 16.4269 95.5504 16.8942 95.9176 17.2328C96.2921 17.564 96.7437 17.7296 97.2725 17.7296C97.7057 17.7296 98.0655 17.6302 98.3519 17.4315C98.6456 17.2254 98.8513 16.9531 98.9688 16.6145H100.048C99.8867 17.196 99.5636 17.6707 99.0789 18.0387C98.5943 18.3993 97.9921 18.5797 97.2725 18.5797C96.6997 18.5797 96.1856 18.4509 95.7304 18.1933C95.2824 17.9357 94.9299 17.5713 94.6729 17.1003C94.4159 16.6219 94.2874 16.0699 94.2874 15.4443C94.2874 14.8187 94.4122 14.2704 94.6619 13.7993C94.9116 13.3283 95.2604 12.9677 95.7083 12.7174C96.1636 12.4598 96.685 12.331 97.2725 12.331C97.8452 12.331 98.3519 12.4561 98.7925 12.7064C99.2331 12.9566 99.5709 13.3025 99.8059 13.7441C100.048 14.1784 100.169 14.6715 100.169 15.2235ZM99.134 15.0137C99.134 14.631 99.0495 14.3035 98.8806 14.0312C98.7117 13.7515 98.4804 13.5417 98.1867 13.4019C97.9003 13.2547 97.5809 13.1811 97.2284 13.1811C96.7217 13.1811 96.2884 13.343 95.9286 13.6669C95.5761 13.9907 95.3742 14.4397 95.3228 15.0137H99.134Z" fill="white"/>
<path d="M107.282 18.5797C106.717 18.5797 106.202 18.4509 105.74 18.1933C105.285 17.9357 104.925 17.5713 104.66 17.1003C104.403 16.6219 104.275 16.0699 104.275 15.4443C104.275 14.8261 104.407 14.2814 104.671 13.8104C104.943 13.332 105.31 12.9677 105.773 12.7174C106.236 12.4598 106.753 12.331 107.326 12.331C107.899 12.331 108.417 12.4598 108.879 12.7174C109.342 12.9677 109.705 13.3283 109.97 13.7993C110.241 14.2704 110.377 14.8187 110.377 15.4443C110.377 16.0699 110.238 16.6219 109.959 17.1003C109.687 17.5713 109.316 17.9357 108.846 18.1933C108.376 18.4509 107.855 18.5797 107.282 18.5797ZM107.282 17.6965C107.642 17.6965 107.98 17.6118 108.295 17.4425C108.611 17.2733 108.864 17.0193 109.055 16.6808C109.254 16.3422 109.353 15.9301 109.353 15.4443C109.353 14.9585 109.257 14.5464 109.066 14.2078C108.875 13.8693 108.626 13.619 108.317 13.4571C108.009 13.2878 107.675 13.2032 107.315 13.2032C106.948 13.2032 106.61 13.2878 106.302 13.4571C106.001 13.619 105.758 13.8693 105.575 14.2078C105.391 14.5464 105.299 14.9585 105.299 15.4443C105.299 15.9374 105.387 16.3533 105.564 16.6918C105.747 17.0304 105.99 17.2843 106.291 17.4536C106.592 17.6155 106.922 17.6965 107.282 17.6965Z" fill="white"/>
<path d="M114.856 12.32C115.591 12.32 116.186 12.5445 116.641 12.9934C117.096 13.435 117.324 14.0753 117.324 14.9144V18.4803H116.332V15.0579C116.332 14.4544 116.182 13.9944 115.881 13.6779C115.58 13.3541 115.168 13.1921 114.647 13.1921C114.118 13.1921 113.696 13.3577 113.38 13.6889C113.072 14.0201 112.918 14.5022 112.918 15.1352V18.4803H111.915V12.4304H112.918V13.2915C113.116 12.9824 113.384 12.7432 113.722 12.5739C114.067 12.4046 114.445 12.32 114.856 12.32Z" fill="white"/>
<path fill-rule="evenodd" clip-rule="evenodd" d="M30.8796 19.8836L30.8155 19.6012C30.8155 17.1282 28.8077 15.1164 26.3398 15.1164C23.872 15.1164 21.8644 17.1282 21.8644 19.6012L21.8002 19.8836H18.1252L19.1158 29.1394C19.3142 31.0221 20.8984 32.4508 22.7873 32.4508H29.8924C31.7813 32.4508 33.3655 31.0221 33.5638 29.1396L34.5546 19.8836H30.8796ZM23.7458 19.8836L23.818 19.6012C23.818 18.2077 24.9493 17.074 26.3398 17.074C27.7306 17.074 28.8619 18.2077 28.8619 19.6012L28.934 19.8836H23.7458Z" fill="white"/>
<defs>
<radialGradient id="paint0_angular_4214_49390" cx="0" cy="0" r="1" gradientUnits="userSpaceOnUse" gradientTransform="translate(26.34 24.0001) rotate(90) scale(15.6 15.5646)">
<stop offset="0.107764" stop-color="#E0379F"/>
<stop offset="0.296875" stop-color="#C903EB"/>
<stop offset="0.541667" stop-color="#E2149A"/>
<stop offset="0.643555" stop-color="#EE2372"/>
<stop offset="0.854167" stop-color="#F76051"/>
</radialGradient>
</defs>
</svg>