<svg viewBox="0 0 24 24" width="24" height="24" data-testid="google" xmlns="http://www.w3.org/2000/svg"><path fill="#FFC107" d="M20.824 10.237H20.1V10.2H12v3.6h5.087A5.4 5.4 0 0 1 12 17.4 5.4 5.4 0 0 1 6.6 12 5.4 5.4 0 0 1 12 6.6c1.376 0 2.63.519 3.582 1.368l2.546-2.546A8.957 8.957 0 0 0 12 3a9 9 0 0 0-9 9 9 9 0 0 0 9 9 9 9 0 0 0 8.824-10.763Z"></path><path fill="#FF3D00" d="m4.037 7.811 2.959 2.17A5.397 5.397 0 0 1 12 6.6c1.376 0 2.63.519 3.582 1.368l2.546-2.546A8.957 8.957 0 0 0 12 3a8.995 8.995 0 0 0-7.963 4.811Z"></path><path fill="#4CAF50" d="M12 21c2.324 0 4.437-.89 6.035-2.336l-2.787-2.357A5.363 5.363 0 0 1 12 17.4a5.396 5.396 0 0 1-5.077-3.575l-2.935 2.26A8.992 8.992 0 0 0 12 21Z"></path><path fill="#1976D2" d="M20.824 10.237H20.1V10.2H12v3.6h5.087a5.424 5.424 0 0 1-1.84 2.507h.001l2.787 2.357C17.838 18.84 21 16.5 21 12c0-.603-.061-1.192-.176-1.763Z"></path></svg>