<svg xmlns="http://www.w3.org/2000/svg" width="163" height="48" viewBox="0 0 163 48" fill="none">
<path d="M156.125 48H6.125C2.825 48 0.125 45.3 0.125 42V6C0.125 2.7 2.825 0 6.125 0H156.125C159.425 0 162.125 2.7 162.125 6V42C162.125 45.3 159.425 48 156.125 48Z" fill="#010101"/>
<path d="M156.125 0.96C158.909 0.96 161.165 3.216 161.165 6V42C161.165 44.784 158.909 47.04 156.125 47.04H6.125C3.341 47.04 1.085 44.784 1.085 42V6C1.085 3.216 3.341 0.96 6.125 0.96H156.125ZM156.125 0H6.125C2.825 0 0.125 2.7 0.125 6V42C0.125 45.3 2.825 48 6.125 48H156.125C159.425 48 162.125 45.3 162.125 42V6C162.125 2.7 159.425 0 156.125 0Z" fill="#A6A6A6"/>
<path d="M57.0289 12.2884C57.0289 13.2964 56.7289 14.1004 56.1289 14.6884C55.4569 15.3964 54.5689 15.7564 53.4889 15.7564C52.4449 15.7564 51.5689 15.3964 50.8369 14.6764C50.1049 13.9564 49.7449 13.0564 49.7449 12.0004C49.7449 10.9324 50.1049 10.0444 50.8369 9.32438C51.5689 8.60438 52.4449 8.24438 53.4889 8.24438C54.0049 8.24438 54.4969 8.34038 54.9649 8.54438C55.4329 8.74838 55.8049 9.01238 56.0929 9.34838L55.4569 9.98438C54.9769 9.42038 54.3289 9.13238 53.4889 9.13238C52.7329 9.13238 52.0729 9.39638 51.5209 9.93638C50.9689 10.4644 50.6929 11.1604 50.6929 12.0124C50.6929 12.8644 50.9689 13.5604 51.5209 14.0884C52.0729 14.6164 52.7329 14.8924 53.4889 14.8924C54.2929 14.8924 54.9649 14.6284 55.5049 14.0884C55.8529 13.7404 56.0569 13.2484 56.1049 12.6244H53.4889V11.7604H56.9809C57.0049 11.9404 57.0289 12.1204 57.0289 12.2884Z" fill="white" stroke="white" stroke-width="0.2" stroke-miterlimit="10"/>
<path d="M62.5608 9.28766H59.2848V11.5677H62.2368V12.4317H59.2848V14.7117H62.5608V15.5997H58.3608V8.39966H62.5608V9.28766Z" fill="white" stroke="white" stroke-width="0.2" stroke-miterlimit="10"/>
<path d="M66.4607 15.5997H65.5368V9.28766H63.5208V8.39966H68.4647V9.28766H66.4487V15.5997H66.4607Z" fill="white" stroke="white" stroke-width="0.2" stroke-miterlimit="10"/>
<path d="M72.053 15.5997V8.39966H72.977V15.5997H72.053Z" fill="white" stroke="white" stroke-width="0.2" stroke-miterlimit="10"/>
<path d="M77.0809 15.5997H76.1569V9.28766H74.1409V8.39966H79.0849V9.28766H77.0689V15.5997H77.0809Z" fill="white" stroke="white" stroke-width="0.2" stroke-miterlimit="10"/>
<path d="M88.4568 14.6644C87.7488 15.3964 86.8729 15.7564 85.8169 15.7564C84.7609 15.7564 83.8848 15.3964 83.1768 14.6644C82.4688 13.9324 82.1208 13.0444 82.1208 12.0004C82.1208 10.9564 82.4688 10.0564 83.1768 9.33638C83.8848 8.60438 84.7609 8.24438 85.8169 8.24438C86.8609 8.24438 87.7368 8.60438 88.4568 9.33638C89.1648 10.0684 89.5248 10.9564 89.5248 12.0004C89.5128 13.0564 89.1648 13.9444 88.4568 14.6644ZM83.8608 14.0644C84.3888 14.6044 85.0489 14.8684 85.8169 14.8684C86.5849 14.8684 87.2448 14.6044 87.7728 14.0644C88.3008 13.5244 88.5768 12.8404 88.5768 12.0004C88.5768 11.1604 88.3128 10.4764 87.7728 9.93638C87.2448 9.39638 86.5849 9.13238 85.8169 9.13238C85.0489 9.13238 84.3888 9.39638 83.8608 9.93638C83.3328 10.4764 83.0568 11.1604 83.0568 12.0004C83.0568 12.8404 83.3328 13.5244 83.8608 14.0644Z" fill="white" stroke="white" stroke-width="0.2" stroke-miterlimit="10"/>
<path d="M90.8208 15.5997V8.39966H91.9488L95.4528 14.0037H95.4888L95.4528 12.6117V8.39966H96.3768V15.5997H95.4168L91.7568 9.73166H91.7208L91.7568 11.1237V15.5997H90.8208Z" fill="white" stroke="white" stroke-width="0.2" stroke-miterlimit="10"/>
<path d="M81.8931 26.1C79.0731 26.1 76.7691 28.248 76.7691 31.2C76.7691 34.14 79.0731 36.3 81.8931 36.3C84.7131 36.3 87.0171 34.14 87.0171 31.2C87.0171 28.248 84.7131 26.1 81.8931 26.1ZM81.8931 34.296C80.3451 34.296 79.0131 33.024 79.0131 31.2C79.0131 29.364 80.3451 28.104 81.8931 28.104C83.4411 28.104 84.7731 29.364 84.7731 31.2C84.7731 33.024 83.4291 34.296 81.8931 34.296ZM70.7091 26.1C67.8891 26.1 65.5851 28.248 65.5851 31.2C65.5851 34.14 67.8891 36.3 70.7091 36.3C73.5291 36.3 75.8331 34.14 75.8331 31.2C75.8331 28.248 73.5291 26.1 70.7091 26.1ZM70.7091 34.296C69.1611 34.296 67.8291 33.024 67.8291 31.2C67.8291 29.364 69.1611 28.104 70.7091 28.104C72.2571 28.104 73.5891 29.364 73.5891 31.2C73.5891 33.024 72.2571 34.296 70.7091 34.296ZM57.4131 27.672V29.832H62.5971C62.4411 31.044 62.0331 31.944 61.4211 32.556C60.6651 33.312 59.489 34.14 57.425 34.14C54.233 34.14 51.737 31.572 51.737 28.38C51.737 25.188 54.233 22.62 57.425 22.62C59.1411 22.62 60.4011 23.292 61.3251 24.168L62.8491 22.644C61.5531 21.408 59.8371 20.46 57.4131 20.46C53.045 20.46 49.373 24.012 49.373 28.392C49.373 32.76 53.045 36.324 57.4131 36.324C59.7771 36.324 61.553 35.556 62.9451 34.104C64.3731 32.676 64.8171 30.66 64.8171 29.04C64.8171 28.536 64.7811 28.068 64.6971 27.684H57.4131V27.672ZM111.785 29.352C111.365 28.212 110.069 26.1 107.417 26.1C104.789 26.1 102.605 28.164 102.605 31.2C102.605 34.056 104.765 36.3 107.669 36.3C110.009 36.3 111.365 34.872 111.917 34.044L110.177 32.88C109.601 33.732 108.809 34.296 107.669 34.296C106.529 34.296 105.713 33.768 105.197 32.748L112.025 29.928L111.785 29.352ZM104.825 31.056C104.765 29.088 106.349 28.08 107.489 28.08C108.377 28.08 109.133 28.524 109.385 29.16L104.825 31.056ZM99.2811 36H101.525V21H99.2811V36ZM95.6091 27.24H95.5251C95.0211 26.64 94.0611 26.1 92.8371 26.1C90.2811 26.1 87.9411 28.344 87.9411 31.224C87.9411 34.08 90.2811 36.312 92.8371 36.312C94.0491 36.312 95.0211 35.772 95.5251 35.148H95.5971V35.88C95.5971 37.836 94.5531 38.88 92.8731 38.88C91.5051 38.88 90.6531 37.896 90.3051 37.068L88.3491 37.884C88.9131 39.24 90.4011 40.896 92.8731 40.896C95.5011 40.896 97.7211 39.348 97.7211 35.58V26.412H95.5971V27.24H95.6091ZM93.0291 34.296C91.4811 34.296 90.1851 33 90.1851 31.224C90.1851 29.424 91.4811 28.116 93.0291 28.116C94.5531 28.116 95.7531 29.436 95.7531 31.224C95.7651 33 94.5651 34.296 93.0291 34.296ZM122.297 21H116.933V36H119.177V30.312H122.309C124.793 30.312 127.229 28.512 127.229 25.656C127.229 22.8 124.769 21 122.297 21ZM122.345 28.224H119.165V23.076H122.345C124.025 23.076 124.973 24.468 124.973 25.644C124.973 26.82 124.025 28.224 122.345 28.224ZM136.193 26.076C134.573 26.076 132.893 26.796 132.197 28.368L134.189 29.196C134.609 28.368 135.401 28.092 136.229 28.092C137.381 28.092 138.569 28.788 138.581 30.024V30.18C138.173 29.952 137.309 29.604 136.241 29.604C134.093 29.604 131.921 30.78 131.921 32.976C131.921 34.98 133.673 36.276 135.641 36.276C137.141 36.276 137.981 35.604 138.497 34.812H138.569V35.976H140.729V30.228C140.741 27.564 138.749 26.076 136.193 26.076ZM135.917 34.296C135.185 34.296 134.165 33.924 134.165 33.024C134.165 31.872 135.437 31.428 136.541 31.428C137.525 31.428 137.993 31.644 138.581 31.932C138.413 33.312 137.213 34.296 135.917 34.296ZM148.613 26.4L146.045 32.904H145.973L143.309 26.4H140.897L144.893 35.496L142.613 40.548H144.953L151.109 26.4H148.613ZM128.453 36H130.697V21H128.453V36Z" fill="white"/>
<path d="M12.6528 9.04885C12.3048 9.42085 12.1008 9.99685 12.1008 10.7288V37.2729C12.1008 38.0168 12.3048 38.5928 12.6528 38.9528L12.7368 39.0368L27.6048 24.1808V24.0008V23.8208L12.7368 8.96484L12.6528 9.04885Z" fill="url(#paint0_linear_3649_35030)"/>
<path d="M32.5607 29.1365L27.6047 24.1805V24.0005V23.8205L32.5607 18.8645L32.6687 18.9245L38.5367 22.2605C40.2167 23.2085 40.2167 24.7685 38.5367 25.7285L32.6687 29.0645L32.5607 29.1365Z" fill="url(#paint1_linear_3649_35030)"/>
<path d="M32.6688 29.0642L27.6048 24.0002L12.6528 38.9522C13.2048 39.5402 14.1168 39.6122 15.1488 39.0242L32.6688 29.0642Z" fill="url(#paint2_linear_3649_35030)"/>
<path d="M32.6689 18.9357L15.1369 8.97574C14.1049 8.38774 13.1929 8.45974 12.6409 9.04774L27.6049 23.9997L32.6689 18.9357Z" fill="url(#paint3_linear_3649_35030)"/>
<path opacity="0.2" d="M32.5608 28.9561L15.1368 38.8561C14.1648 39.4081 13.2888 39.3721 12.7368 38.8681L12.6528 38.9521L12.7368 39.0361C13.3008 39.5401 14.1648 39.5761 15.1368 39.0241L32.6688 29.0641L32.5608 28.9561Z" fill="#010101"/>
<path opacity="0.12" d="M12.6528 38.7838C12.3048 38.4118 12.1008 37.8358 12.1008 37.1038V37.2838C12.1008 38.0278 12.3048 38.6038 12.6528 38.9638L12.7368 38.8798L12.6528 38.7838Z" fill="#010101"/>
<path opacity="0.12" d="M38.5368 25.5602L32.5488 28.9562L32.6568 29.0642L38.5248 25.7282C39.3648 25.2482 39.7848 24.6242 39.7848 24.0002C39.7248 24.5642 39.3048 25.1282 38.5368 25.5602Z" fill="#010101"/>
<path opacity="0.25" d="M15.1369 9.14319L38.5369 22.4392C39.2929 22.8712 39.7249 23.4232 39.7969 23.9992C39.7969 23.3752 39.3769 22.7392 38.5369 22.2712L15.1369 8.97519C13.4569 8.02719 12.0889 8.81919 12.0889 10.7392V10.9192C12.0889 8.98719 13.4689 8.19519 15.1369 9.14319Z" fill="white"/>
<defs>
<linearGradient id="paint0_linear_3649_35030" x1="26.2845" y1="10.4525" x2="6.14559" y2="30.5914" gradientUnits="userSpaceOnUse">
<stop stop-color="#00A0FF"/>
<stop offset="0.00657445" stop-color="#00A1FF"/>
<stop offset="0.2601" stop-color="#00BEFF"/>
<stop offset="0.5122" stop-color="#00D2FF"/>
<stop offset="0.7604" stop-color="#00DFFF"/>
<stop offset="1" stop-color="#00E3FF"/>
</linearGradient>
<linearGradient id="paint1_linear_3649_35030" x1="40.726" y1="24.0022" x2="11.6897" y2="24.0022" gradientUnits="userSpaceOnUse">
<stop stop-color="#FFE000"/>
<stop offset="0.4087" stop-color="#FFBD00"/>
<stop offset="0.7754" stop-color="#FFA500"/>
<stop offset="1" stop-color="#FF9C00"/>
</linearGradient>
<linearGradient id="paint2_linear_3649_35030" x1="29.9172" y1="26.7556" x2="2.60727" y2="54.0655" gradientUnits="userSpaceOnUse">
<stop stop-color="#FF3A44"/>
<stop offset="1" stop-color="#C31162"/>
</linearGradient>
<linearGradient id="paint3_linear_3649_35030" x1="8.88163" y1="0.211179" x2="21.0768" y2="12.4062" gradientUnits="userSpaceOnUse">
<stop stop-color="#32A071"/>
<stop offset="0.0685" stop-color="#2DA771"/>
<stop offset="0.4762" stop-color="#15CF74"/>
<stop offset="0.8009" stop-color="#06E775"/>
<stop offset="1" stop-color="#00F076"/>
</linearGradient>
</defs>
</svg>