<svg width="216" height="22" viewBox="0 0 216 22" fill="none" xmlns="http://www.w3.org/2000/svg">
<path fill-rule="evenodd" clip-rule="evenodd" d="M5.23517 4.64986C5.18186 4.86637 5.15901 5.28428 5.25549 5.67953C5.49468 6.65283 6.98264 7.43299 8.68021 8.32305C10.9827 9.5303 13.6709 10.9397 14.1517 13.3076C14.2304 13.7255 14.4107 14.8257 14.172 16.5175C13.6947 19.7978 10.9045 21.0062 7.18757 21.0062C3.47065 21.0062 0 19.687 0 15.304V13.8061H5.30372L5.31134 15.6917C5.31134 16.7642 6.05016 17.4766 7.28659 17.4766C8.60935 17.4766 9.05619 16.812 9.21868 16.1524C9.31516 15.7823 9.37101 15.1756 9.1806 14.7048C8.74292 13.6204 7.20652 12.7875 5.52452 11.8756C3.27445 10.6558 0.763804 9.29468 0.274199 7.00123C0.0660109 6.00933 0.0888609 5.23645 0.233577 4.35783C0.759126 1.15554 3.62806 0 7.14188 0C9.93718 0 13.8141 0.67973 13.8166 4.94441V6.3215H8.88355V5.10805C8.88355 4.04062 8.20313 3.32816 7.0454 3.32816C5.79881 3.32816 5.36974 4.02552 5.23517 4.64986ZM69.54 4.7128C69.4943 4.92931 69.4689 5.33966 69.5577 5.72736L69.5552 5.72484C69.7933 6.68845 71.2658 7.46302 72.9446 8.34614C75.2221 9.54416 77.8793 10.942 78.3499 13.2824C78.4413 13.6953 78.6089 14.7854 78.3854 16.4621C77.9183 19.7072 75.1585 20.903 71.4695 20.903C67.7805 20.903 64.3581 19.5939 64.3581 15.2612V13.7658H69.606V15.6464C69.606 16.7038 70.3448 17.4061 71.5762 17.4061C72.8888 17.4061 73.3305 16.7491 73.4829 16.097C73.5743 15.7395 73.625 15.1353 73.4473 14.6595C73.0149 13.5866 71.4938 12.7621 69.8284 11.8594C67.6018 10.6526 65.1174 9.30595 64.6323 7.03899C64.4114 6.05968 64.447 5.29183 64.5841 4.4258C65.1045 1.24617 67.9481 0.108253 71.4314 0.108253C74.1988 0.108253 78.0173 0.772879 78.0173 4.99728V6.3643H73.1426V5.16596C73.1426 4.10608 72.4749 3.40117 71.3324 3.40117C70.1061 3.40117 69.6821 4.08594 69.54 4.7128ZM109.799 0.624345L114.455 16.4092H114.458L114.189 0.624345H119.074V20.0269H112.036L107.034 3.736L107.316 20.0269H102.462V0.624345H109.799ZM17.5056 20.2308L21.1692 0.624345H29.9563L33.6046 20.2308H28.3009L25.6072 2.08199L22.8474 20.2308H17.5056ZM48.5383 15.951L51.0341 0.624345H59.0899L59.5317 20.2308H54.5783L54.4438 2.08199L51.0417 20.2308H46.0274L42.6278 2.08199L42.4933 20.2308H37.5526L37.9791 0.624345H46.0452L48.5383 15.951ZM91.9786 0.624345H96.9802V14.6797C97.0005 15.0422 96.965 15.7823 96.937 15.9762C96.5841 19.6392 93.6695 20.8275 90.0338 20.8275C86.3982 20.8275 83.4886 19.6392 83.1433 15.9762C83.123 15.7823 83.0951 15.0422 83.1001 14.6797V0.624345H88.0992V15.1278C88.0941 15.3795 88.0992 15.664 88.15 15.873C88.2465 16.3614 88.6578 17.2979 90.0364 17.2979C91.415 17.2979 91.8314 16.3589 91.9354 15.873C91.9786 15.664 91.9862 15.3795 91.9786 15.1278V0.624345ZM131.314 12.0841V9.2242H138.308V14.4783C138.301 14.8383 138.293 15.1152 138.234 15.7723C137.902 19.3472 134.777 20.616 131.281 20.616C127.784 20.616 124.659 19.3497 124.334 15.7723C124.268 15.1152 124.255 14.8383 124.255 14.4783V6.2359C124.255 5.87841 124.314 5.27421 124.354 4.93938C124.791 1.27135 127.792 0.0981834 131.296 0.0981834C134.799 0.0981834 137.856 1.26128 138.229 4.93938C138.29 5.56372 138.268 6.2359 138.268 6.2359V6.87787H133.289V5.7903C133.289 5.7903 133.284 5.31701 133.228 5.03504C133.142 4.60707 132.766 3.61516 131.253 3.61516C129.813 3.61516 129.386 4.55672 129.287 5.03504C129.221 5.29687 129.199 5.64428 129.199 5.96149V14.9214C129.199 15.1731 129.214 15.4475 129.249 15.6665C129.336 16.1952 129.823 17.0965 131.263 17.0965C132.702 17.0965 133.208 16.1952 133.289 15.6665C133.332 15.4475 133.345 15.1756 133.34 14.9214V12.0841H131.314ZM212.402 18.0427C211.256 19.5084 209.391 20.3878 207.339 20.3878C203.581 20.3878 199.664 17.4031 199.664 12.2866C199.664 7.1167 203.448 4.15869 207.392 4.15869C209.418 4.15869 211.23 4.95815 212.376 6.31724V0.347914H216V20.068H212.402V18.0427ZM203.208 12.2333C203.208 14.9514 205.26 17.0833 207.925 17.0833C210.617 17.0833 212.589 14.9248 212.589 12.2333C212.589 9.56839 210.617 7.43649 207.925 7.43649C205.26 7.43649 203.208 9.54174 203.208 12.2333ZM156.198 20.068H152.574V0.614401H163.58V4.07874H156.198V8.55574H163.58V12.0201H156.198V20.068ZM181.097 12.2866C181.097 16.7636 177.499 20.3878 173.022 20.3878C168.519 20.3878 164.948 16.7636 164.948 12.2866C164.948 7.72962 168.519 4.15869 173.022 4.15869C177.499 4.15869 181.097 7.72962 181.097 12.2866ZM168.492 12.2866C168.492 14.8715 170.438 17.0034 173.022 17.0034C175.581 17.0034 177.553 14.8715 177.553 12.2866C177.553 9.64834 175.581 7.54308 173.022 7.54308C170.438 7.54308 168.492 9.64834 168.492 12.2866ZM190.381 20.3878C194.858 20.3878 198.455 16.7636 198.455 12.2866C198.455 7.72962 194.858 4.15869 190.381 4.15869C185.877 4.15869 182.306 7.72962 182.306 12.2866C182.306 16.7636 185.877 20.3878 190.381 20.3878ZM190.381 17.0034C187.796 17.0034 185.85 14.8715 185.85 12.2866C185.85 9.64834 187.796 7.54308 190.381 7.54308C192.939 7.54308 194.911 9.64834 194.911 12.2866C194.911 14.8715 192.939 17.0034 190.381 17.0034Z" fill="#010101"></path>
</svg>