<svg width="157" height="281" viewBox="0 0 157 281" fill="none" xmlns="http://www.w3.org/2000/svg">
<path d="M60.5894 63.0036C52.552 68.5469 46.9308 76.9366 47.0714 86.9777C56.8337 84.3291 64.5055 68.9082 68.0716 59.2433C65.4198 60.1545 62.903 61.4194 60.5894 63.0036ZM53.3604 90.8835C46.3477 97.5523 41.7703 108.396 44.0334 118.141C53.2173 113.774 58.4523 95.8484 60.2003 85.9708C57.6981 87.2744 55.3949 88.9287 53.3604 90.8835ZM51.4619 120.164C45.4432 128.788 43.2015 140.06 47.1504 150.027C54.151 144.453 56.1172 132.624 56.9716 123.917C57.3001 120.583 57.451 117.247 57.4528 113.892C55.17 115.711 53.1546 117.842 51.466 120.223L51.4619 120.164ZM55.2251 149.877C50.8498 158.962 50.323 171.297 56.1565 179.89C63.8101 172.452 61.9588 152.746 60.1061 142.529C58.1409 144.736 56.4976 147.21 55.2251 149.877ZM64.2912 177.429C61.3973 187.195 63.081 199.434 70.4184 206.918C76.8499 198.279 71.6109 179.164 67.9705 169.383C66.3636 171.874 65.1244 174.584 64.2912 177.429ZM78.0386 202.172C77.3303 207.609 78.0495 213.136 80.1252 218.21C82.201 223.285 85.5618 227.731 89.8773 231.113C93.5588 222.253 89.0132 210.938 85.2298 202.704C83.792 199.598 82.1987 196.567 80.456 193.622C79.261 196.357 78.4677 199.25 78.1006 202.212L78.0386 202.172ZM96.3546 224.186C97.0109 235.048 103.438 246.423 113.451 251.162C116.687 240.589 104.109 223.259 97.0772 215.074C96.3511 218.056 96.068 221.129 96.2369 224.194L96.3546 224.186ZM73.1857 36.4187C64.9325 40.1442 56.9996 48.2373 55.8775 57.5538C65.7645 56.478 76.196 42.4753 81.0608 34.0499C78.3427 34.4884 75.6947 35.2849 73.1857 36.4187ZM82.0252 14.8707C78.4419 21.9649 72.0961 31.6172 64.5211 34.8962C63.4622 23.5595 75.1661 11.4779 85.5797 6.72912C84.5532 9.5094 83.3664 12.2279 82.0252 14.8707ZM44.3238 56.7804C46.2244 66.6246 46.534 76.7574 42.4998 86.0706C35.2271 80.3566 36.0925 66.3133 38.0834 58.4289C39.0225 54.8292 40.3178 51.3322 41.95 47.9893C42.958 50.8568 43.7514 53.7953 44.3238 56.7804ZM35.1879 87.6167C38.9944 96.6033 41.5633 108.396 39.3439 118.085C27.859 111.321 27.9151 91.1998 30.9811 79.4562C32.5896 82.0651 33.9959 84.7932 35.1879 87.6167ZM31.9354 120.362C37.8199 129.263 42.4387 140.143 42.5237 150.868C32.5997 147.823 28.0717 134.438 26.6413 124.975C26.0439 120.982 25.8503 116.94 26.0634 112.909C28.2214 115.229 30.1853 117.721 31.9354 120.362ZM35.0729 154.02C42.3531 161.109 49.848 171.478 51.7859 181.645C40.8774 180.796 34.3797 168.835 30.7518 159.865C29.3171 155.963 28.2819 151.925 27.6622 147.813C30.2925 149.683 32.7706 151.759 35.0729 154.02ZM44.3253 185.714C53.0713 191.148 62.4702 199.787 66.4584 209.471C55.5127 211.049 46.6217 200.585 41.2224 192.494C39.0147 188.946 37.1765 185.182 35.7364 181.26C38.7178 182.504 41.5907 183.994 44.3253 185.714ZM59.1632 214.637C69.7845 218.565 79.8388 225.163 86.4855 234.395C76.0355 238.2 64.1737 229.215 57.4555 222.132C54.5503 219.045 51.9756 215.664 49.7732 212.042C52.972 212.636 56.1135 213.504 59.1632 214.637ZM79.3011 240.721C90.2008 242.501 102.745 247.299 110.784 255.088C100.872 261.295 87.7365 254.394 79.3028 248.776C75.6643 246.178 72.3061 243.208 69.2823 239.914C72.6326 239.882 75.9793 240.143 79.2843 240.692L79.3011 240.721ZM59.28 27.7985C59.2077 36.9086 57.1863 48.3721 51.5718 55.8005C45.8402 48.6631 49.5432 35.2491 53.0984 27.9648C54.6802 24.7787 56.5841 21.763 58.7804 18.9649C59.2108 21.8867 59.4172 24.837 59.3977 27.7903L59.28 27.7985Z" fill="#EEF4FA"/>
<path d="M64.7647 34.9975C59.659 43.8293 55.3606 53.1038 51.922 62.7082C44.0167 86.2011 41.5798 105.04 43.0485 129.843C46.1574 162.247 54.5197 185.651 72.8926 212.494C91.6155 237.79 110.337 253.139 138.686 266.646L137.622 268.982C108.913 255.175 89.9721 239.442 71.1322 213.741C52.7294 186.471 44.4475 162.736 41.6218 129.943C40.396 105.019 43.0797 86.1187 51.4116 62.5961C54.9918 53.0325 59.4381 43.816 64.6952 35.0614L64.7647 34.9975Z" fill="#EEF4FA"/>
</svg>
