<svg viewBox="0 0 24 24" width="24" height="24" data-testid="samsung" class="s44" xmlns="http://www.w3.org/2000/svg"><path fill-rule="evenodd" d="M19.42 18.276C18.826 22.299 14.715 23 11.809 23 6.984 23 4 21.025 4 17.002l.003-1.64h5.845l.004 2.043c0 1.11.817 1.79 2.077 1.79 1.125 0 1.783-.434 2.011-1.322.105-.414.15-1.018-.038-1.473-1.075-2.583-8.67-3.849-9.592-8.038-.212-.95-.227-1.756-.053-2.775C4.9 1.79 8.703 1 11.763 1c2.739 0 4.732.573 5.927 1.718.891.856 1.343 2.03 1.343 3.49v1.497h-5.467V6.384c0-1.132-.731-1.788-1.91-1.788-1.045 0-1.678.445-1.883 1.322A2.42 2.42 0 0 0 9.8 6.962c.585 2.302 8.708 3.71 9.598 7.94.112.541.27 1.7.023 3.374Z" clip-rule="evenodd"></path></svg>