<svg fill="none" viewBox="0 0 24 24" width="24" height="24" data-testid="tiktok" xmlns="http://www.w3.org/2000/svg"><path fill="#25F4EE" d="M9.207 9.28v-.92a6.906 6.906 0 0 0-.974-.082c-3.157-.006-5.951 2.018-6.9 4.998a7.105 7.105 0 0 0 2.762 8.008A7.084 7.084 0 0 1 4.441 11.2a7.257 7.257 0 0 1 4.766-1.92Z"></path><path fill="#25F4EE" d="M9.382 19.682c1.764-.002 3.215-1.378 3.293-3.123V.986h2.874A5.236 5.236 0 0 1 15.466 0h-3.931v15.558c-.066 1.753-1.52 3.143-3.293 3.146a3.38 3.38 0 0 1-1.521-.376 3.29 3.29 0 0 0 1.166.993c.463.235.975.36 1.495.361ZM20.917 6.27v-.865a5.412 5.412 0 0 1-2.974-.889 5.456 5.456 0 0 0 2.974 1.754Z"></path><path fill="#FE2C55" d="M17.944 4.518A5.324 5.324 0 0 1 16.598.98h-1.05c.136.72.418 1.405.83 2.014a5.414 5.414 0 0 0 1.566 1.524Zm-9.711 7.655c-1.823.01-3.293 1.48-3.283 3.283.003.593.168 1.173.479 1.679.31.506.754.92 1.283 1.195a3.239 3.239 0 0 1 .735-4.551 3.312 3.312 0 0 1 1.935-.62c.33.005.658.056.973.152V9.35a6.898 6.898 0 0 0-.973-.075h-.175v3.01a3.368 3.368 0 0 0-.974-.113Z"></path><path fill="#FE2C55" d="M20.917 6.27v3.01a9.394 9.394 0 0 1-5.453-1.753v7.91c-.008 3.947-3.243 7.143-7.231 7.143a7.203 7.203 0 0 1-4.137-1.294c2.714 2.888 7.28 3.053 10.2.367a7.141 7.141 0 0 0 1.702-2.377c.396-.9.6-1.87.6-2.852V8.535a9.416 9.416 0 0 0 5.46 1.731V6.391a5.664 5.664 0 0 1-1.141-.121Z"></path><path fill="#000" d="M15.464 15.44V7.53a9.401 9.401 0 0 0 5.46 1.73V6.25a5.468 5.468 0 0 1-2.98-1.732 5.42 5.42 0 0 1-1.566-1.525 5.36 5.36 0 0 1-.83-2.013h-2.874v15.58c-.075 1.804-1.611 3.205-3.433 3.132a3.326 3.326 0 0 1-1.425-.385 3.29 3.29 0 0 1-1.112-.962 3.25 3.25 0 0 1-.176-5.683 3.323 3.323 0 0 1 1.697-.473c.33.003.658.053.973.15V9.283c-3.98.067-7.153 3.36-7.086 7.3a7.098 7.098 0 0 0 1.976 4.789 7.208 7.208 0 0 0 4.144 1.212c3.99-.001 7.224-3.197 7.232-7.144Z"></path></svg>