<svg xmlns="http://www.w3.org/2000/svg" fill="none" viewBox="0 0 79 27" width="79" height="27" data-testid="darkAppStore"><path fill="#010101" d="M5.026 26.61c-.202 0-.4-.002-.6-.006a8.232 8.232 0 0 1-1.24-.111 3.84 3.84 0 0 1-1.1-.373 3.592 3.592 0 0 1-.928-.69 3.613 3.613 0 0 1-.677-.95 3.954 3.954 0 0 1-.36-1.126 8.633 8.633 0 0 1-.111-1.275 63.46 63.46 0 0 1-.01-.62V5.757s.006-.47.01-.608c.005-.426.042-.852.11-1.272.063-.393.185-.774.36-1.13.173-.352.401-.673.674-.95A3.7 3.7 0 0 1 3.183.732 8.164 8.164 0 0 1 4.428.621l.599-.009h68.218l.606.009c.414.005.826.042 1.234.11.386.068.76.193 1.11.373a3.76 3.76 0 0 1 1.958 2.765c.068.425.107.853.115 1.283.002.193.002.4.002.605.005.255.005.498.005.742v14.226c0 .246 0 .487-.005.73 0 .221 0 .424-.003.632a8.862 8.862 0 0 1-.113 1.26 3.722 3.722 0 0 1-1.033 2.077 3.596 3.596 0 0 1-.929.695c-.348.18-.722.307-1.107.374a8.14 8.14 0 0 1-1.24.11 25.51 25.51 0 0 1-.596.008l-.72.001-67.503-.001Z"></path><path fill="#fff" d="M16.157 13.807a3.207 3.207 0 0 1 1.537-2.699 3.299 3.299 0 0 0-2.604-1.402c-1.095-.115-2.157.653-2.715.653-.57 0-1.428-.642-2.354-.623a3.476 3.476 0 0 0-2.918 1.773c-1.261 2.177-.32 5.376.888 7.135.605.861 1.312 1.824 2.236 1.79.905-.038 1.243-.575 2.335-.575 1.082 0 1.399.574 2.342.553.971-.016 1.583-.865 2.166-1.735a7.117 7.117 0 0 0 .99-2.01 3.117 3.117 0 0 1-1.383-1.144 3.1 3.1 0 0 1-.52-1.716ZM14.374 8.55a3.16 3.16 0 0 0 .727-2.27A3.237 3.237 0 0 0 13.01 7.36a3.01 3.01 0 0 0-.746 2.185 2.682 2.682 0 0 0 2.111-.995ZM27.593 18.252h-3.087l-.742 2.182h-1.308l2.925-8.072h1.359l2.924 8.072h-1.33l-.74-2.182Zm-2.767-1.006h2.447l-1.206-3.541h-.034l-1.207 3.54ZM35.98 17.493c0 1.829-.982 3.003-2.464 3.003a2.007 2.007 0 0 1-1.858-1.03h-.029v2.916h-1.212V14.55h1.174v.979h.022a2.092 2.092 0 0 1 1.88-1.04c1.5 0 2.487 1.18 2.487 3.004Zm-1.246 0c0-1.192-.618-1.975-1.56-1.975-.927 0-1.55.8-1.55 1.975 0 1.186.623 1.98 1.55 1.98.942 0 1.56-.778 1.56-1.98ZM42.48 17.493c0 1.829-.982 3.003-2.464 3.003a2.007 2.007 0 0 1-1.858-1.03h-.029v2.916h-1.212V14.55h1.174v.979h.022a2.092 2.092 0 0 1 1.88-1.04c1.5 0 2.487 1.18 2.487 3.004Zm-1.246 0c0-1.192-.618-1.975-1.56-1.975-.927 0-1.55.8-1.55 1.975 0 1.186.623 1.98 1.55 1.98.942 0 1.56-.778 1.56-1.98ZM46.776 18.186c.09.8.87 1.326 1.937 1.326 1.021 0 1.756-.526 1.756-1.247 0-.627-.443-1.002-1.493-1.26l-1.05-.251c-1.487-.358-2.177-1.051-2.177-2.176 0-1.393 1.218-2.35 2.947-2.35 1.712 0 2.885.957 2.925 2.35h-1.224c-.073-.806-.742-1.292-1.718-1.292-.977 0-1.645.492-1.645 1.208 0 .57.427.906 1.47 1.164l.893.218c1.662.391 2.353 1.057 2.353 2.237 0 1.51-1.207 2.456-3.127 2.456-1.797 0-3.01-.923-3.088-2.383h1.241ZM54.366 13.157v1.393h1.123v.957h-1.123v3.244c0 .504.225.739.718.739.134-.003.267-.012.4-.028v.95a3.34 3.34 0 0 1-.674.056c-1.196 0-1.662-.447-1.662-1.588v-3.373h-.859v-.957h.859v-1.393h1.218ZM56.14 17.493c0-1.852 1.094-3.015 2.8-3.015 1.713 0 2.802 1.163 2.802 3.015 0 1.856-1.084 3.015-2.802 3.015-1.717 0-2.8-1.159-2.8-3.015Zm4.367 0c0-1.27-.584-2.02-1.567-2.02-.982 0-1.566.755-1.566 2.02 0 1.275.584 2.019 1.566 2.019.983 0 1.567-.744 1.567-2.02ZM62.741 14.55h1.156v1.002h.028a1.403 1.403 0 0 1 1.42-1.064c.14 0 .28.015.416.045v1.13a1.7 1.7 0 0 0-.544-.073 1.225 1.225 0 0 0-1.21.836 1.215 1.215 0 0 0-.054.518v3.49h-1.212V14.55ZM71.35 18.706c-.163 1.069-1.207 1.802-2.542 1.802-1.719 0-2.785-1.147-2.785-2.987 0-1.846 1.072-3.044 2.734-3.044 1.633 0 2.661 1.119 2.661 2.903v.414h-4.171v.073a1.526 1.526 0 0 0 .417 1.19 1.54 1.54 0 0 0 1.172.477 1.34 1.34 0 0 0 1.363-.828h1.151Zm-4.097-1.756h2.952a1.41 1.41 0 0 0-.877-1.387 1.425 1.425 0 0 0-.571-.107 1.503 1.503 0 0 0-1.065.435 1.488 1.488 0 0 0-.44 1.059ZM24.674 6.288a1.728 1.728 0 0 1 1.373.531 1.715 1.715 0 0 1 .458 1.396c0 1.239-.672 1.951-1.831 1.951h-1.406V6.288h1.406Zm-.802 3.33h.734a1.227 1.227 0 0 0 1.243-.86c.053-.173.067-.356.04-.535a1.217 1.217 0 0 0-.754-1.3 1.23 1.23 0 0 0-.529-.087h-.734v2.782ZM27.188 8.7a1.383 1.383 0 0 1 .822-1.4 1.396 1.396 0 0 1 1.883.83c.062.184.084.378.065.57a1.382 1.382 0 0 1-.821 1.403 1.396 1.396 0 0 1-1.885-.832 1.383 1.383 0 0 1-.064-.57Zm2.174 0c0-.634-.286-1.005-.788-1.005-.504 0-.787.37-.787 1.005 0 .64.283 1.008.787 1.008.502 0 .788-.37.788-1.008ZM33.64 10.165h-.6l-.608-2.155h-.046l-.604 2.155h-.596l-.81-2.927h.589l.526 2.234h.043l.604-2.234h.556l.604 2.234h.046l.523-2.234h.58l-.806 2.927ZM35.128 7.238h.558v.465h.044a.877.877 0 0 1 .876-.521.959.959 0 0 1 .984.666c.042.137.054.28.033.422v1.895h-.58v-1.75c0-.47-.205-.704-.634-.704a.676.676 0 0 0-.67.456.67.67 0 0 0-.031.286v1.712h-.58V7.238ZM38.546 6.096h.58v4.07h-.58v-4.07ZM39.932 8.7a1.383 1.383 0 0 1 .822-1.4 1.396 1.396 0 0 1 1.884.83c.06.184.083.378.065.57a1.383 1.383 0 0 1-.822 1.403 1.395 1.395 0 0 1-1.885-.832 1.383 1.383 0 0 1-.064-.57Zm2.174 0c0-.634-.286-1.005-.788-1.005-.504 0-.787.37-.787 1.005 0 .64.283 1.008.787 1.008.502 0 .788-.37.788-1.008ZM43.313 9.337c0-.527.393-.83 1.092-.873l.796-.046v-.253c0-.309-.205-.483-.602-.483-.323 0-.547.118-.612.325h-.56c.058-.503.533-.825 1.2-.825.736 0 1.15.365 1.15.983v2h-.557v-.411h-.046a.987.987 0 0 1-.882.46.89.89 0 0 1-.902-.518.882.882 0 0 1-.077-.359Zm1.888-.25v-.245l-.717.046c-.405.027-.588.164-.588.422 0 .264.229.417.544.417a.694.694 0 0 0 .76-.64ZM46.54 8.7c0-.924.477-1.51 1.219-1.51a.97.97 0 0 1 .9.513h.044V6.096h.58v4.07h-.556v-.463h-.046a1.017 1.017 0 0 1-.922.51c-.747 0-1.22-.585-1.22-1.513Zm.599 0c0 .621.293.995.784.995.489 0 .79-.38.79-.992 0-.61-.304-.994-.79-.994-.488 0-.784.376-.784.991ZM51.681 8.7a1.382 1.382 0 0 1 .822-1.4 1.396 1.396 0 0 1 1.884.83c.06.184.083.378.064.57a1.382 1.382 0 0 1-.821 1.403 1.397 1.397 0 0 1-1.885-.832 1.382 1.382 0 0 1-.064-.57Zm2.174 0c0-.634-.286-1.005-.788-1.005-.504 0-.787.37-.787 1.005 0 .64.283 1.008.787 1.008.502 0 .788-.37.788-1.008ZM55.23 7.238h.557v.465h.044a.877.877 0 0 1 .876-.521.959.959 0 0 1 .984.666.95.95 0 0 1 .033.422v1.895h-.58v-1.75c0-.47-.205-.704-.634-.704a.676.676 0 0 0-.67.456.669.669 0 0 0-.031.286v1.712h-.58V7.238ZM61 6.51v.742h.636v.486h-.637v1.505c0 .307.127.441.416.441.073 0 .147-.004.22-.013v.481c-.103.019-.209.029-.315.03-.644 0-.901-.226-.901-.79V7.737h-.466v-.486h.466V6.51h.58ZM62.427 6.096h.575v1.613h.046a.902.902 0 0 1 .895-.525.97.97 0 0 1 .975.673.96.96 0 0 1 .037.418v1.89h-.58V8.418c0-.468-.219-.704-.629-.704a.688.688 0 0 0-.7.449.682.682 0 0 0-.04.293v1.71h-.579v-4.07ZM68.335 9.375a1.188 1.188 0 0 1-1.273.847 1.338 1.338 0 0 1-1.31-.941 1.324 1.324 0 0 1-.047-.57 1.345 1.345 0 0 1 .791-1.412c.177-.079.37-.119.564-.117.817 0 1.31.556 1.31 1.475v.202h-2.074v.032a.77.77 0 0 0 .467.776c.1.042.207.064.315.063a.706.706 0 0 0 .699-.355h.558Zm-2.04-.943h1.484a.703.703 0 0 0-.434-.705.711.711 0 0 0-.288-.054.754.754 0 0 0-.706.467.747.747 0 0 0-.055.292Z"></path></svg>