<svg viewBox="0 0 24 24" width="24" height="24" data-testid="comment" class="s3574" xmlns="http://www.w3.org/2000/svg" fill="#fff"><path d="M11.502 3a9.498 9.498 0 0 0-9.498 9.498 8.827 8.827 0 0 0 1.06 4.35l-.95 2.6a1.9 1.9 0 0 0 2.435 2.434l2.6-.95a8.827 8.827 0 0 0 4.353 1.064 9.499 9.499 0 0 0 0-18.996Zm0 17.097a6.674 6.674 0 0 1-4.116-1.267l-3.483 1.267 1.267-3.483a6.674 6.674 0 0 1-1.267-4.116 7.599 7.599 0 1 1 7.599 7.599Z"></path><path d="M13.515 14.513a2.851 2.851 0 0 1-4.03 0 .95.95 0 1 0-1.343 1.342 4.75 4.75 0 0 0 6.716 0 .95.95 0 1 0-1.343-1.342Z"></path></svg>