<svg xmlns="http://www.w3.org/2000/svg" fill="none" viewBox="0 0 87 27" width="87" height="27" data-testid="darkGooglePlay"><path fill="#010101" d="M82.897 26.612H3.453c-1.748 0-3.178-1.462-3.178-3.25v-19.5c0-1.787 1.43-3.25 3.178-3.25h79.444c1.748 0 3.178 1.463 3.178 3.25v19.5c0 1.788-1.43 3.25-3.178 3.25Z"></path><path fill="#fff" stroke="#fff" stroke-miterlimit="10" stroke-width="0.138" d="M30.487 7.269c0 .546-.16.981-.478 1.3-.357.383-.828.578-1.402.578-.554 0-1.019-.195-1.408-.585-.388-.39-.58-.877-.58-1.45 0-.578.192-1.059.58-1.449.389-.39.854-.585 1.408-.585.274 0 .535.052.784.163.249.11.446.253.599.435l-.338.345c-.255-.306-.599-.462-1.045-.462-.401 0-.751.143-1.044.436-.293.286-.44.663-.44 1.124 0 .462.146.839.44 1.125.293.286.643.435 1.044.435.427 0 .784-.143 1.07-.435.185-.189.294-.455.32-.793h-1.39v-.468h1.854c.013.097.026.195.026.286ZM33.424 5.644h-1.74V6.88h1.568v.468h-1.568v1.235h1.74v.481h-2.23v-3.9h2.23v.481ZM35.495 9.063h-.491V5.644h-1.07v-.48h2.624v.48h-1.07v3.42h.007ZM38.464 9.063v-3.9h.49v3.9h-.49ZM41.133 9.063h-.49V5.644h-1.071v-.48h2.625v.48h-1.07v3.42h.006ZM47.173 8.556c-.376.396-.841.591-1.402.591-.56 0-1.026-.195-1.401-.591-.376-.397-.561-.878-.561-1.443 0-.566.185-1.053.56-1.443.376-.397.841-.592 1.402-.592.554 0 1.02.195 1.402.592.376.396.567.877.567 1.443-.007.572-.191 1.053-.567 1.443Zm-2.44-.325c.28.292.63.435 1.038.435.408 0 .758-.143 1.039-.435.28-.293.426-.663.426-1.118 0-.455-.14-.826-.426-1.118a1.385 1.385 0 0 0-1.039-.436c-.408 0-.758.143-1.038.436-.28.292-.427.663-.427 1.118 0 .455.146.825.427 1.118ZM48.427 9.063v-3.9h.6l1.86 3.036h.019l-.02-.754V5.163h.491v3.9h-.51l-1.943-3.178h-.019l.02.754v2.424h-.498Z"></path><path fill="#fff" d="M43.687 14.75c-1.497 0-2.72 1.163-2.72 2.762 0 1.592 1.223 2.762 2.72 2.762s2.72-1.17 2.72-2.762c0-1.6-1.223-2.763-2.72-2.763Zm0 4.439c-.822 0-1.53-.69-1.53-1.677 0-.995.708-1.677 1.53-1.677.822 0 1.529.682 1.529 1.677 0 .988-.714 1.677-1.53 1.677Zm-5.938-4.44c-1.497 0-2.72 1.164-2.72 2.763 0 1.592 1.223 2.762 2.72 2.762s2.72-1.17 2.72-2.762c0-1.6-1.223-2.763-2.72-2.763Zm0 4.44c-.822 0-1.529-.69-1.529-1.677 0-.995.707-1.677 1.53-1.677.821 0 1.528.682 1.528 1.677 0 .988-.707 1.677-1.529 1.677ZM30.69 15.6v1.17h2.752c-.082.656-.299 1.144-.624 1.475-.401.41-1.026.858-2.121.858-1.695 0-3.02-1.39-3.02-3.12 0-1.729 1.325-3.12 3.02-3.12.91 0 1.58.364 2.07.839l.81-.826c-.689-.67-1.6-1.183-2.887-1.183-2.319 0-4.268 1.924-4.268 4.297 0 2.366 1.95 4.296 4.268 4.296 1.255 0 2.198-.416 2.937-1.202.758-.774.994-1.866.994-2.743 0-.273-.02-.527-.064-.735H30.69v-.006Zm28.867.91c-.223-.618-.911-1.762-2.32-1.762-1.394 0-2.554 1.118-2.554 2.763 0 1.547 1.147 2.762 2.689 2.762 1.242 0 1.962-.773 2.255-1.222l-.924-.63c-.306.461-.726.767-1.331.767-.606 0-1.039-.286-1.313-.839l3.625-1.527-.127-.312Zm-3.695.923c-.032-1.066.809-1.612 1.414-1.612.472 0 .873.24 1.007.585l-2.421 1.027Zm-2.944 2.678h1.192v-8.125h-1.192v8.125Zm-1.95-4.745h-.044c-.267-.325-.777-.618-1.427-.618-1.357 0-2.6 1.216-2.6 2.776 0 1.547 1.243 2.756 2.6 2.756.644 0 1.16-.293 1.427-.63h.038v.396c0 1.06-.554 1.625-1.446 1.625-.726 0-1.178-.533-1.363-.982l-1.038.442c.299.735 1.089 1.632 2.401 1.632 1.395 0 2.574-.839 2.574-2.88v-4.966h-1.128v.449h.007ZM49.6 19.189c-.822 0-1.51-.702-1.51-1.664 0-.975.688-1.684 1.51-1.684.81 0 1.446.715 1.446 1.684.007.962-.63 1.664-1.446 1.664Zm15.539-7.202H62.29v8.125h1.191V17.03h1.663c1.319 0 2.612-.975 2.612-2.522 0-1.547-1.306-2.522-2.618-2.522Zm.025 3.913h-1.688V13.11h1.688c.892 0 1.396.754 1.396 1.391s-.504 1.398-1.396 1.398Zm7.352-1.164c-.86 0-1.752.39-2.121 1.242l1.057.448c.223-.448.644-.598 1.084-.598.611 0 1.242.377 1.248 1.047v.084a2.62 2.62 0 0 0-1.242-.312c-1.14 0-2.294.637-2.294 1.827 0 1.085.93 1.787 1.975 1.787.797 0 1.243-.364 1.517-.793h.038v.63h1.147v-3.113c.006-1.443-1.052-2.249-2.409-2.249Zm-.146 4.453c-.389 0-.93-.202-.93-.69 0-.623.675-.864 1.261-.864.523 0 .771.117 1.083.273a1.448 1.448 0 0 1-1.414 1.28Zm6.74-4.277-1.363 3.523h-.038l-1.415-3.523h-1.28l2.121 4.927-1.21 2.736h1.242l3.269-7.663h-1.326Zm-10.703 5.2h1.191v-8.125h-1.19v8.125Z"></path><path fill="url(#id-51-a)" d="M6.927 5.512c-.185.202-.293.514-.293.91V20.8c0 .403.108.715.293.91l.044.046 7.894-8.047v-.195L6.971 5.467l-.044.045Z"></path><path fill="url(#id-51-b)" d="m17.496 16.394-2.631-2.684v-.195l2.63-2.685.058.033 3.115 1.807c.892.513.892 1.358 0 1.878l-3.115 1.807-.057.04Z"></path><path fill="url(#id-51-c)" d="m17.553 16.355-2.688-2.743-7.938 8.1c.293.318.777.357 1.325.038l9.301-5.395Z"></path><path fill="url(#id-51-d)" d="M17.553 10.87 8.245 5.473c-.548-.318-1.032-.28-1.325.04l7.945 8.098 2.688-2.743Z"></path><path fill="#000" d="m17.497 16.296-9.25 5.362c-.517.3-.982.28-1.275.007l-.045.045.045.046c.3.273.758.292 1.274-.007l9.308-5.395-.057-.058Z" opacity="0.2"></path><path fill="#000" d="M6.927 21.62c-.185-.201-.293-.514-.293-.91v.098c0 .402.108.715.293.91l.045-.046-.045-.052ZM20.668 14.457l-3.179 1.84.057.058 3.116-1.807c.446-.26.669-.598.669-.936-.032.306-.255.611-.663.845Z" opacity="0.12"></path><path fill="#fff" d="m8.245 5.565 12.423 7.202c.402.234.631.533.67.845 0-.338-.224-.683-.67-.936L8.245 5.474c-.892-.514-1.618-.085-1.618.955v.098c0-1.047.732-1.476 1.618-.962Z" opacity="0.25"></path><defs><linearGradient id="id-51-a" x1="14.164" x2="3.258" y1="6.273" y2="16.962" gradientUnits="userSpaceOnUse"><stop stop-color="#00A0FF"></stop><stop offset="0.007" stop-color="#00A1FF"></stop><stop offset="0.26" stop-color="#00BEFF"></stop><stop offset="0.512" stop-color="#00D2FF"></stop><stop offset="0.76" stop-color="#00DFFF"></stop><stop offset="1" stop-color="#00E3FF"></stop></linearGradient><linearGradient id="id-51-b" x1="21.831" x2="6.415" y1="13.613" y2="13.613" gradientUnits="userSpaceOnUse"><stop stop-color="#FFE000"></stop><stop offset="0.409" stop-color="#FFBD00"></stop><stop offset="0.775" stop-color="orange"></stop><stop offset="1" stop-color="#FF9C00"></stop></linearGradient><linearGradient id="id-51-c" x1="16.092" x2="1.302" y1="15.105" y2="29.601" gradientUnits="userSpaceOnUse"><stop stop-color="#FF3A44"></stop><stop offset="1" stop-color="#C31162"></stop></linearGradient><linearGradient id="id-51-d" x1="4.924" x2="11.529" y1="0.727" y2="7.2" gradientUnits="userSpaceOnUse"><stop stop-color="#32A071"></stop><stop offset="0.069" stop-color="#2DA771"></stop><stop offset="0.476" stop-color="#15CF74"></stop><stop offset="0.801" stop-color="#06E775"></stop><stop offset="1" stop-color="#00F076"></stop></linearGradient></defs></svg>