<svg width="12" height="12" viewBox="0 0 16 29" fill="none" xmlns="http://www.w3.org/2000/svg">
<path d="M15.2325 0.322724L11.5612 0.316833C7.43656 0.316833 4.77107 3.05155 4.77107 7.28424V10.4967H1.07972C0.760745 10.4967 0.502441 10.7553 0.502441 11.0743V15.7287C0.502441 16.0477 0.761039 16.306 1.07972 16.306H4.77107V28.0507C4.77107 28.3696 5.02937 28.628 5.34834 28.628H10.1645C10.4835 28.628 10.7418 28.3694 10.7418 28.0507V16.306H15.0578C15.3768 16.306 15.6351 16.0477 15.6351 15.7287L15.6369 11.0743C15.6369 10.9211 15.5759 10.7744 15.4678 10.666C15.3597 10.5576 15.2125 10.4967 15.0593 10.4967H10.7418V7.77345C10.7418 6.46456 11.0537 5.8001 12.7587 5.8001L15.2319 5.79922C15.5506 5.79922 15.8089 5.54062 15.8089 5.22194V0.900003C15.8089 0.581616 15.5509 0.323313 15.2325 0.322724Z" fill="#233748"></path>
</svg>