<svg width="12" height="12" viewBox="0 0 14 15" fill="none" xmlns="http://www.w3.org/2000/svg">
<g clip-path="url(#clip0)">
<path d="M9.74865 0.850647H3.63152C1.64064 0.850647 0.0209961 2.4703 0.0209961 4.46117V10.5784C0.0209961 12.5692 1.64064 14.1888 3.63152 14.1888H9.74876C11.7395 14.1888 13.3592 12.5692 13.3592 10.5784V4.46117C13.3592 2.4703 11.7395 0.850647 9.74865 0.850647V0.850647ZM6.69009 11.1668C4.67906 11.1668 3.04303 9.53076 3.04303 7.51974C3.04303 5.50871 4.67906 3.87268 6.69009 3.87268C8.70111 3.87268 10.3371 5.50871 10.3371 7.51974C10.3371 9.53076 8.70111 11.1668 6.69009 11.1668ZM10.4244 4.73278C9.83006 4.73278 9.34669 4.2494 9.34669 3.65511C9.34669 3.06082 9.83006 2.57735 10.4244 2.57735C11.0186 2.57735 11.5021 3.06082 11.5021 3.65511C11.5021 4.2494 11.0186 4.73278 10.4244 4.73278Z" fill="#233748"></path>
<path d="M6.68982 4.65472C5.11007 4.65472 3.82471 5.93998 3.82471 7.51984C3.82471 9.0996 5.11007 10.385 6.68982 10.385C8.26968 10.385 9.55494 9.0996 9.55494 7.51984C9.55494 5.93998 8.26968 4.65472 6.68982 4.65472Z" fill="#233748"></path>
<path d="M10.4241 3.35944C10.2611 3.35944 10.1284 3.49213 10.1284 3.65516C10.1284 3.81818 10.2611 3.95088 10.4241 3.95088C10.5873 3.95088 10.72 3.81828 10.72 3.65516C10.72 3.49203 10.5873 3.35944 10.4241 3.35944Z" fill="#233748"></path>
</g>
<defs>
<clipPath id="clip0">
<rect x="0.0209961" y="0.850647" width="13.3382" height="13.3382" fill="white"></rect>
</clipPath>
</defs>
</svg>