<svg width="12" height="12" viewBox="0 0 17 12" fill="none" xmlns="http://www.w3.org/2000/svg">
<path d="M16.1316 2.51659C15.9479 1.83382 15.4096 1.2956 14.7269 1.11175C13.4798 0.770508 8.49102 0.770508 8.49102 0.770508C8.49102 0.770508 3.50247 0.770508 2.25531 1.09881C1.58577 1.28246 1.03432 1.83392 0.850666 2.51659C0.522461 3.76365 0.522461 6.3499 0.522461 6.3499C0.522461 6.3499 0.522461 8.94918 0.850666 10.1832C1.03452 10.8659 1.57264 11.4041 2.25541 11.5879C3.51561 11.9293 8.49121 11.9293 8.49121 11.9293C8.49121 11.9293 13.4798 11.9293 14.7269 11.601C15.4097 11.4172 15.9479 10.879 16.1318 10.1963C16.4599 8.94918 16.4599 6.36303 16.4599 6.36303C16.4599 6.36303 16.473 3.76365 16.1316 2.51659ZM6.90271 8.73916V3.96063L11.0511 6.3499L6.90271 8.73916Z" fill="#233748"></path>
</svg>